<svg height="24" viewBox="0 0 24 24" width="24" xmlns="http://www.w3.org/2000/svg"><g fill="#fbb848"><path d="m21.5912 6.84349-7.8694 5.16551c-.1351.088-.2444.2103-.317.3543l-1.1997 2.4056c-.0174.0399-.0461.0739-.0825.0977-.0364.0239-.079.0366-.1226.0366s-.0862-.0127-.1226-.0366c-.0364-.0238-.0651-.0578-.0825-.0977l-1.1997-2.4056c-.0726-.144-.1819-.2663-.317-.3543l-7.86944-5.16551c-.03957-.04698-.09618-.07632-.15738-.08157-.0612-.00524-.12198.01404-.16896.0536-.04698.03957-.07633.09618-.08157.15738-.00525.0612.01403.12198.0536.16896l3.28825 6.39624c.01598.0335.02385.0703.02297.1074s-.01049.0734-.02804.1061c-.01756.0327-.04257.0608-.07301.082-.03043.0212-.06544.035-.10219.0402h-1.97668c-.04881-.0005-.0965.0146-.13617.043-.03967.0285-.06926.0688-.08449.1152s-.0153.0964-.00022.1428c.01509.0464.04455.0869.08413.1154l8.8142 6.3155c.0403.0275.088.0422.1368.0422s.0965-.0147.1368-.0422l8.8142-6.3155c.0396-.0285.069-.069.0841-.1154s.015-.0964-.0002-.1428-.0448-.0867-.0845-.1152c-.0396-.0284-.0873-.0435-.1362-.043h-1.9766c-.0389-.0015-.0769-.0126-.1105-.0323-.0335-.0197-.0617-.0474-.082-.0806s-.0321-.071-.0343-.1098c-.0022-.0389.0052-.0777.0216-.113l3.3132-6.39624c.0395-.04698.0588-.10776.0536-.16896-.0053-.0612-.0346-.11781-.0816-.15738-.047-.03956-.1078-.05884-.169-.0536-.0612.00525-.1178.03459-.1574.08157z"/><path d="m12.1741 2.10696.8081 1.64723c.0143.02721.0346.05084.0594.06913.0247.01829.0533.03078.0835.03654l1.8213.26107c.0356.00524.0691.02036.0966.04366s.0479.05383.0589.08814.0122.07102.0034.10595c-.0089.03494-.0273.06671-.0532.0917l-1.3178 1.28049c-.0213.02203-.0373.04854-.047.07758s-.0127.05988-.009.09025l.3108 1.80885c.0069.03487.0036.07096-.0094.10404-.013.03307-.0351.06174-.0639.08264-.0287.0209-.0628.03315-.0983.03532-.0354.00217-.0708-.00584-.1019-.02309l-1.6285-.85159c-.0265-.01527-.0565-.02331-.0871-.02331-.0305 0-.0605.00804-.087.02331l-1.6286.85159c-.031.01725-.0664.02526-.1019.02309-.0354-.00217-.0695-.01442-.0983-.03532-.0287-.0209-.0509-.04957-.0639-.08264-.0129-.03308-.0162-.06917-.0094-.10404l.3108-1.80885c.0038-.03037.0008-.06121-.0089-.09025s-.0258-.05555-.047-.07758l-1.31781-1.28049c-.02595-.02499-.04438-.05676-.05318-.0917-.00881-.03493-.00764-.07164.00336-.10595s.03141-.06484.05889-.08814c.02749-.0233.06095-.03842.0966-.04366l1.82124-.25485c.0303-.00576.0588-.01825.0836-.03654.0247-.01829.045-.04192.0594-.06913l.8081-1.64723c.015-.03321.0392-.06147.0696-.08149.0305-.02003.066-.03101.1025-.03166.0364-.00065.0723.00905.1035.02798.0311.01893.0563.0463.0725.07895z"/></g></svg>