<svg height="24" viewBox="0 0 24 24" width="24" xmlns="http://www.w3.org/2000/svg"><path d="m16.4823 15.6364h-1.2218c-.7028-.0096-1.3731-.2975-1.8639-.8006s-.7621-1.1803-.7543-1.8831v-1.2509c-.0019-.2803.1071-.5501.3033-.7504s.4636-.3148.744-.3187h5.7382v-1.49815h-10.18186c-.92363 2.08005-1.86909 4.24725-2.18181 5.09095-.20109.4955-.54642.9193-.99121 1.2162-.44479.297-.96854.4535-1.50334.4492v.8946c.40174.4023.87908.7212 1.40455.9384s1.08869.3283 1.65727.327h9.1564c.7008 0 1.373-.2779 1.8693-.7728s.776-1.1663.7779-1.8672v-.1891c-.4132.2695-.8957.4135-1.3891.4146zm-6.1309-2.0437c-.1802.0013-.35663-.0514-.50658-.1513-.14996-.0999-.26654-.2424-.33472-.4092-.06819-.1668-.08484-.3502-.04782-.5265.03702-.1764.12602-.3376.25552-.4629s.2936-.2089.471-.2401c.1775-.0312.3603-.0084.5247.0652.1644.0737.3031.1949.398.3481.0949.1531.1417.3312.1344.5113-.0093.2315-.1074.4506-.274.6118-.1665.1611-.3888.252-.6205.2536z" fill="#9cb8ff"/><path d="m19.617 10.6327h-5.92c-.1394.001-.2773.0294-.4057.0836-.1285.0543-.245.1333-.343.2326-.0979.0992-.1753.2168-.2278.346-.0524.1292-.079.2675-.078.4069v1.2509c-.0078.7028.2635 1.38.7543 1.8831s1.1611.791 1.8639.8006h2.7854c.4934-.0011.9759-.1451 1.3891-.4146l.0728-.0436c.3531-.2533.6404-.5876.8378-.9748s.2991-.8161.2967-1.2507v-1.2509c.0039-.2772-.1015-.5448-.2934-.7449s-.4549-.3166-.7321-.3242zm-2.6109 3.8327h-1.1563c-.0626.0081-.1261.0027-.1864-.0157s-.1159-.0495-.1633-.0911c-.0473-.0416-.0853-.0929-.1112-.1503-.026-.0575-.0395-.1198-.0395-.1829 0-.063.0135-.1253.0395-.1828.0259-.0574.0639-.1087.1112-.1503.0474-.0416.103-.0727.1633-.0911s.1238-.0238.1864-.0158h1.1563c.0626-.008.1261-.0026.1864.0158s.1159.0495.1633.0911c.0473.0416.0853.0929.1112.1503.026.0575.0395.1198.0395.1828 0 .0631-.0135.1254-.0395.1829-.0259.0574-.0639.1087-.1112.1503-.0474.0416-.103.0727-.1633.0911s-.1238.0238-.1864.0157zm2.0728 0h-.4437c-.1069-.0137-.2052-.066-.2764-.147s-.1105-.1851-.1105-.293c0-.1078.0393-.2119.1105-.2929s.1695-.1333.2764-.1471h.4437c.0625-.008.126-.0026.1863.0158s.116.0495.1633.0911c.0474.0416.0853.0929.1113.1503.0259.0575.0394.1198.0394.1828 0 .0631-.0135.1254-.0394.1829-.026.0574-.0639.1087-.1113.1503-.0473.0416-.103.0727-.1633.0911s-.1238.0238-.1863.0157z" fill="#cbdaf7"/><path d="m17.0061 13.5855h-1.1564c-.0625-.0081-.1261-.0027-.1864.0157s-.1159.0495-.1633.0911c-.0473.0417-.0852.0929-.1112.1503-.026.0575-.0394.1198-.0394.1829 0 .063.0134.1253.0394.1828.026.0574.0639.1087.1112.1503.0474.0416.103.0727.1633.0911s.1239.0238.1864.0158h1.1564c.0625.008.126.0026.1863-.0158s.116-.0495.1633-.0911c.0474-.0416.0853-.0929.1113-.1503.0259-.0575.0394-.1198.0394-.1828 0-.0631-.0135-.1254-.0394-.1829-.026-.0574-.0639-.1086-.1113-.1503-.0473-.0416-.103-.0727-.1633-.0911s-.1238-.0238-.1863-.0157zm2.0581 0h-.4436c-.107.0137-.2052.066-.2765.147-.0712.081-.1105.1851-.1105.293 0 .1078.0393.2119.1105.2929.0713.081.1695.1333.2765.1471h.4436c.0626.008.1261.0026.1864-.0158s.1159-.0495.1633-.0911c.0473-.0416.0853-.0929.1112-.1503.026-.0575.0395-.1198.0395-.1828 0-.0631-.0135-.1254-.0395-.1829-.0259-.0574-.0639-.1086-.1112-.1503-.0474-.0416-.103-.0727-.1633-.0911s-.1238-.0238-.1864-.0157z" fill="#9cb8ff"/><path d="m2.62786 15.1709c-.10957-.05-.21639-.1058-.32-.1673v4.2037l1.13455.7927 1.12727-.7927v-3.3164c-.71689.0255-1.41481-.2333-1.94182-.72z" fill="#ff903e"/><path d="m6.3152 13.7455c-.1373.345-.34381.6583-.6068.9205-.26298.2622-.57687.4677-.92232.604-.34546.1363-.71516.2004-1.08632.1883-.37117-.012-.73594-.0999-1.07183-.2583.52585.4893 1.22391.7508 1.94182.7273.53666-.0108 1.05762-.1831 1.49485-.4945s.77041-.7473.95606-1.251c.32727-.8291 1.27272-2.9963 2.18182-5.09089h-.92364s-1.25818 2.85819-1.96364 4.65459z" fill="#d0d9ea"/><path d="m11.5298 4 .6182.05091z" fill="#ebeff7"/><path d="m16.897 7.11273c.8756.02248 1.7483.11 2.6109.26182-.5673-.67636-2.7782-2.90909-7.3527-3.30909 3.309.79273 4.5309 2.67636 4.7418 3.04727zm-10.58184 6.63277c.70545-1.7964 1.96363-4.61095 1.96363-4.61095s2.24001-1.69454 6.85091-1.98545c-1.6073-2.18182-4.2473-2.90909-5.87636-3.08364-5.62182.60364-8.24727 4.87273-8.24727 8.27634-.033091.5186.06957 1.0368.29786 1.5036s.57432.866 1.00396 1.1582c.1036.0615.21042.1173.32.1673.33408.1592.69713.2485 1.06693.2625.36979.014.73856-.0476 1.08372-.181.34517-.1335.65948-.3359.92369-.595.26422-.2591.47278-.5694.61293-.9119zm-4.74909-2.0655c.02458-.5434.26177-1.0553.66042-1.4254.39864-.37006.92678-.5686 1.47049-.55278.53236.11535.99792.43568 1.29598.89158s.40466 1.0109.29674 1.5448c-.02451.5382-.25765 1.0458-.65 1.415-.39235.3693-.91308.5713-1.45181.5632-.26672-.053-.52036-.1581-.74635-.3094-.22599-.1512-.41989-.3456-.57057-.572-.15069-.2263-.25519-.4802-.30751-.7471-.05232-.2668-.05144-.5414.00261-.8079z" fill="#fff"/><path d="m16.1552 7.10544c-.3564 0-.7273 0-1.0328.04363-4.6109.29091-6.84359 1.98546-6.84359 1.98546h15.60729c-1.29-.93245-2.7877-1.53654-4.3637-1.76-.8626-.15183-1.7353-.23934-2.6109-.26182z" fill="#7687b2"/><path d="m3.18792 14.1164c.54495.0178 1.07495-.1799 1.47517-.5502.40023-.3703.63843-.8833.66301-1.428.10697-.5391-.00456-1.0986-.31006-1.5555s-.77995-.77374-1.31903-.88086c-.5437-.01583-1.07184.18271-1.47049.55276-.39864.3701-.63583.882-.66042 1.4254-.05404.2665-.05493.5411-.0026.8079.05232.2669.15682.5208.30751.7471.15068.2264.34458.4208.57057.572.22599.1513.47962.2564.74634.3094zm-1.28-2.3564c.00742-.1825.05112-.3617.12857-.5271s.18709-.3137.32251-.4363c.13542-.1225.29391-.2168.4662-.2775.1723-.0606.35494-.0862.53727-.0754.35402.0768.6634.2902.86088.5939.19747.3037.26707.6731.19366 1.0279-.01513.3614-.17287.7021-.43868.9475-.26581.2453-.61802.3753-.9795.3616-.35825-.0704-.67407-.2798-.87847-.5823-.20441-.3025-.28078-.6736-.21244-1.0323z" fill="#7687b2"/><path d="m2.96248 13.3745c.36148.0138.71369-.1162.9795-.3616.2658-.2453.42355-.586.43868-.9474.0734-.3548.0038-.7242-.19367-1.0279-.19748-.3037-.50686-.5171-.86088-.594-.36217-.0118-.71436.1199-.97995.3664s-.42308.588-.43823.95c-.06934.3535.00209.7201.19907 1.0216.19698.3016.50394.5144.85548.5929zm12.16002-6.21814h1.7527c-.2182-.37818-1.4545-2.25454-4.7345-3.04727l-.611-.10909h-.9163c-.4521.0002-.90378.02691-1.35274.08 1.62184.19636 4.25454.86545 5.86184 3.07636z" fill="#ff903e"/><circle cx="10.28" cy="12.75" fill="#040405" r="1"/></svg>