<svg height="24" viewBox="0 0 24 24" width="24" xmlns="http://www.w3.org/2000/svg"><circle cx="15" cy="12" fill="#fff" r="6"/><path clip-rule="evenodd" d="m2.20812 10.124c.42636 0 .7816-.34817.7816-.76611 0-.41793-.35524-.76615-.7816-.76615h-.42635c-.42636 0-.78177.34822-.78177.76615 0 .41794.35541.76611.78177.76611zm16.13038 9.2643c4.0504-1.811 5.7558-6.4083 3.9083-10.23937-1.2791-2.71657-3.9793-4.31859-6.8217-4.45801h-8.02965c-.71065 0-1.20812.55735-1.20812 1.18425 0 .69645.56859 1.18409 1.20812 1.18409h2.06067c.42635 0 .78158.34822.78158.76616 0 .41793-.35523.76632-.78158.76632h-5.04517c-.42635 0-.78176.34822-.78176.76615 0 .41794.35541.76611.78176.76611h3.62404c.42635 0 .78159.3484.78159.7664 0 .4179-.35524.7661-.78159.7661h-2.27402c-.42636 0-.7816.3482-.7816.7662 0 .4179.35524.7663.7816.7663h1.56336c.07112.8359.2843 1.6717.63954 2.4379 1.77654 3.8311 6.46643 5.5028 10.37463 3.7614zm-7.2725-5.1884c-1.0318-2.2025-.0466-4.80794 2.2003-5.81933 2.2469-1.0114 4.9049-.04564 5.9366 2.15683 1.0318 2.2025.0468 4.8079-2.2003 5.8193-2.2469 1.0114-4.9048.0457-5.9366-2.1568z" fill="#4f5d7f" fill-rule="evenodd"/><path d="m16.8142 9.86662 1.4212 2.36838c.0711.1392.0711.2089 0 .3482l-1.4212 2.3683c-.0711.1393-.2131.1393-.2842.1393h-2.7714c-.142 0-.2131-.0697-.2841-.1393l-1.4213-2.3683c-.0709-.1393-.0709-.209 0-.3482l1.4213-2.36838c.071-.13926.2132-.13926.2841-.13926h2.7714c.1422-.06971.2131 0 .2842.13926z" fill="#c5cedd"/></svg>