<svg height="222" viewBox="0 0 272 222" width="272" xmlns="http://www.w3.org/2000/svg" xmlns:xlink="http://www.w3.org/1999/xlink"><mask id="a" fill="#fff"><path d="m0 158v-157.677h255.5v157.677z" fill="#fff" fill-rule="evenodd"/></mask><g fill="none" fill-rule="evenodd" transform="translate(8 14)"><path d="m255.4998 24.8557c0 13.549-10.984 24.533-24.533 24.533h-29.107c-9.311 0-16.86 7.549-16.86 16.86 0 9.312 7.549 16.86 16.86 16.86h31.612c10.509 0 19.028 8.519 19.028 19.029 0 10.509-8.519 19.028-19.028 19.028h-61.555c-10.171 0-18.417 8.246-18.417 18.417s-8.246 18.417-18.417 18.417h-91.496c-24.072 0-43.587-19.514-43.587-43.586 0-24.073 19.515-43.587 43.587-43.587h27.094c8.185 0 14.819-6.635 14.819-14.819s-6.634-14.819-14.819-14.819h-46.247c-11.286 0-20.434-9.148-20.434-20.433s9.148-20.433 20.434-20.433h206.533c13.549 0 24.533 10.984 24.533 24.533" fill="#4f545c" fill-opacity=".3" mask="url(#a)" transform="translate(0 35.531)"/><path d="m56.9481 28.9863h.722c.552 0 1-.448 1-1s-.448-1-1-1h-.722c-.553 0-1 .448-1 1s.447 1 1 1m4.4922 0h124.486c.777 0 1.409.632 1.409 1.408v31.637c0 .553.447 1 1 1 .552 0 1-.447 1-1v-31.637c0-1.879-1.53-3.408-3.409-3.408h-124.486c-.553 0-1 .448-1 1s.447 1 1 1" fill="#202225"/><g fill="#36393f"><path d="m81.513 137.069 1.671-5.637h-8.326l-1.672 5.637z"/><path d="m123.7586 124.9697h-13.139l-1.562 5.727c-.119.434-.514.736-.965.736h-11.868l-1.531 5.637h12.646c.303 0 .59.137.779.374.085.105.138.228.174.355h16.874v-11.421c0-.776-.632-1.408-1.408-1.408"/><path d="m126.7767 108.2324-.448.137c-.662.201-.925.999-.511 1.553l.311.418c.328.44.24 1.062-.197 1.393l-.306.233c-.442.336-1.072.247-1.405-.196l-.38-.507c-.405-.54-1.217-.532-1.611.016l-.358.495c-.319.444-.936.549-1.384.236l-.34-.238c-.462-.323-.566-.964-.23-1.416l.345-.465c.411-.553.152-1.347-.506-1.551l-.5-.155c-.521-.161-.815-.709-.665-1.233l.115-.398c.156-.541.729-.846 1.265-.675l.573.183c.645.206 1.304-.276 1.304-.953v-.511c0-.552.448-1 1-1h.399c.552 0 1 .448 1 1v.536c0 .677.659 1.158 1.304.952l.51-.163c.533-.17 1.102.131 1.262.666l.12.4c.158.527-.141 1.082-.667 1.243m-13.104-18.614-.448.136c-.662.202-.924.999-.511 1.554l.312.418c.328.44.239 1.062-.197 1.393l-.307.233c-.441.336-1.072.247-1.405-.197l-.38-.506c-.404-.54-1.217-.532-1.611.016l-.357.495c-.32.444-.936.549-1.385.236l-.34-.238c-.462-.323-.566-.964-.229-1.416l.344-.465c.411-.553.153-1.347-.506-1.551l-.5-.156c-.52-.161-.815-.709-.664-1.232l.115-.398c.156-.541.728-.847 1.265-.675l.572.182c.646.206 1.304-.275 1.304-.952v-.512c0-.552.448-1 1-1h.4c.552 0 1 .448 1 1v.536c0 .677.659 1.159 1.304.953l.51-.163c.533-.17 1.102.131 1.262.666l.119.4c.158.526-.14 1.082-.667 1.243m-13.102 0-.448.136c-.662.202-.924.999-.511 1.554l.311.418c.328.44.24 1.062-.197 1.393l-.306.233c-.442.336-1.072.247-1.405-.197l-.38-.506c-.405-.54-1.217-.532-1.611.016l-.357.495c-.32.444-.937.549-1.385.236l-.34-.238c-.462-.323-.566-.964-.23-1.416l.345-.465c.411-.553.152-1.347-.506-1.551l-.5-.156c-.52-.161-.816-.709-.665-1.232l.115-.398c.156-.541.729-.847 1.265-.675l.573.182c.645.206 1.304-.275 1.304-.952v-.512c0-.552.448-1 1-1h.399c.553 0 1 .448 1 1v.536c0 .677.659 1.159 1.304.953l.511-.163c.532-.17 1.101.131 1.261.666l.12.4c.158.526-.141 1.082-.667 1.243m19.401-2.353.573.182c.645.206 1.304-.275 1.304-.952v-.512c0-.552.448-1 1-1h.399c.552 0 1 .448 1 1v.536c0 .677.659 1.159 1.304.953l.51-.163c.533-.17 1.102.131 1.262.666l.12.4c.157.526-.141 1.082-.667 1.243l-.448.136c-.662.202-.925.999-.511 1.554l.311.418c.328.44.24 1.062-.197 1.393l-.306.233c-.442.336-1.072.247-1.405-.197l-.38-.506c-.405-.54-1.217-.532-1.611.016l-.358.495c-.319.444-.936.549-1.384.236l-.34-.238c-.462-.323-.566-.964-.23-1.416l.345-.465c.411-.553.152-1.347-.506-1.551l-.5-.156c-.521-.161-.815-.709-.665-1.232l.115-.398c.156-.541.729-.847 1.265-.675m13.105 0 .572.182c.646.206 1.304-.275 1.304-.952v-.512c0-.552.448-1 1-1h.4c.552 0 1 .448 1 1v.536c0 .677.659 1.159 1.304.953l.51-.163c.533-.17 1.102.131 1.262.666l.119.4c.158.526-.14 1.082-.667 1.243l-.448.136c-.662.202-.924.999-.51 1.554l.311.418c.328.44.239 1.062-.197 1.393l-.307.233c-.441.336-1.072.247-1.405-.197l-.38-.506c-.404-.54-1.217-.532-1.611.016l-.357.495c-.32.444-.936.549-1.385.236l-.34-.238c-.462-.323-.566-.964-.229-1.416l.344-.465c.411-.553.153-1.347-.506-1.551l-.5-.156c-.52-.161-.815-.709-.664-1.232l.115-.398c.156-.541.728-.847 1.265-.675m13.103 0 .573.182c.645.206 1.304-.275 1.304-.952v-.512c0-.552.448-1 1-1h.399c.552 0 1 .448 1 1v.536c0 .677.659 1.159 1.304.953l.51-.163c.533-.17 1.102.131 1.262.666l.12.4c.157.526-.141 1.082-.667 1.243l-.448.136c-.662.202-.925.999-.511 1.554l.311.418c.328.44.24 1.062-.197 1.393l-.306.233c-.442.336-1.072.247-1.405-.197l-.38-.506c-.405-.54-1.217-.532-1.611.016l-.358.495c-.319.444-.936.549-1.384.236l-.34-.238c-.462-.323-.566-.964-.23-1.416l.345-.465c.411-.553.152-1.347-.506-1.551l-.5-.156c-.521-.161-.815-.709-.665-1.232l.115-.398c.156-.541.729-.847 1.265-.675m13.105 0 .572.182c.646.206 1.304-.275 1.304-.952v-.512c0-.552.448-1 1-1h.4c.552 0 1 .448 1 1v.536c0 .677.659 1.159 1.304.953l.51-.163c.533-.17 1.102.131 1.262.666l.119.4c.158.526-.14 1.082-.666 1.243l-.449.136c-.662.202-.924.999-.51 1.554l.311.418c.328.44.239 1.062-.197 1.393l-.307.233c-.441.336-1.072.247-1.405-.197l-.38-.506c-.404-.54-1.217-.532-1.611.016l-.357.495c-.32.444-.936.549-1.385.236l-.34-.238c-.462-.323-.566-.964-.229-1.416l.344-.465c.411-.553.153-1.347-.506-1.551l-.5-.156c-.52-.161-.815-.709-.664-1.232l.115-.398c.156-.541.728-.847 1.265-.675m13.103 0 .573.182c.645.206 1.304-.275 1.304-.952v-.512c0-.552.448-1 1-1h.399c.552 0 1 .448 1 1v.536c0 .677.659 1.159 1.304.953l.51-.163c.533-.17 1.102.131 1.262.666l.12.4c.157.526-.141 1.082-.667 1.243l-.448.136c-.662.202-.925.999-.511 1.554l.311.418c.328.44.24 1.062-.197 1.393l-.306.233c-.442.336-1.072.247-1.405-.197l-.38-.506c-.405-.54-1.217-.532-1.611.016l-.358.495c-.319.444-.936.549-1.384.236l-.34-.238c-.462-.323-.566-.964-.23-1.416l.345-.465c.411-.553.152-1.347-.506-1.551l-.5-.156c-.521-.161-.815-.709-.665-1.232l.115-.398c.156-.541.729-.847 1.265-.675m13.105 0 .572.182c.646.206 1.304-.275 1.304-.952v-.512c0-.552.448-1 1-1h.4c.552 0 1 .448 1 1v.536c0 .677.659 1.159 1.304.953l.51-.163c.533-.17 1.102.131 1.262.666l.119.4c.158.526-.14 1.082-.666 1.243l-.449.136c-.662.202-.924.999-.51 1.554l.311.418c.328.44.239 1.062-.197 1.393l-.307.233c-.441.336-1.072.247-1.405-.197l-.38-.506c-.404-.54-1.217-.532-1.611.016l-.357.495c-.32.444-.936.549-1.385.236l-.34-.238c-.462-.323-.566-.964-.229-1.416l.344-.465c.411-.553.153-1.347-.506-1.551l-.5-.156c-.52-.161-.815-.709-.664-1.232l.115-.398c.156-.541.728-.847 1.265-.675m11.723 19.687.115-.398c.156-.541.729-.846 1.265-.675l.573.183c.645.206 1.304-.276 1.304-.953v-.511c0-.552.448-1 1-1h.399c.552 0 1 .448 1 1v.536c0 .677.659 1.158 1.304.952l.51-.163c.533-.17 1.102.131 1.262.666l.12.4c.158.527-.141 1.082-.667 1.243l-.448.137c-.662.201-.925.999-.511 1.553l.311.418c.328.44.24 1.062-.197 1.393l-.306.233c-.442.336-1.072.247-1.405-.196l-.38-.507c-.405-.54-1.217-.532-1.611.016l-.358.495c-.319.444-.936.549-1.384.236l-.34-.238c-.462-.323-.566-.964-.23-1.416l.345-.465c.411-.553.152-1.347-.506-1.551l-.5-.155c-.521-.161-.815-.709-.665-1.233m0-18.614.115-.398c.156-.541.729-.847 1.265-.675l.573.182c.645.206 1.304-.275 1.304-.952v-.512c0-.552.448-1 1-1h.399c.552 0 1 .448 1 1v.536c0 .677.659 1.159 1.304.953l.51-.163c.533-.17 1.102.131 1.262.666l.12.4c.157.526-.141 1.082-.667 1.243l-.448.136c-.662.202-.925.999-.511 1.554l.311.418c.328.44.24 1.062-.197 1.393l-.306.233c-.442.336-1.072.247-1.405-.197l-.38-.506c-.405-.54-1.217-.532-1.611.016l-.358.495c-.319.444-.936.549-1.384.236l-.34-.238c-.462-.323-.566-.964-.23-1.416l.345-.465c.411-.553.152-1.347-.506-1.551l-.5-.156c-.521-.161-.815-.709-.665-1.232m-4.919 19.894-.449.137c-.662.201-.924.999-.51 1.553l.311.418c.327.44.239 1.062-.198 1.393l-.306.233c-.441.336-1.072.247-1.405-.196l-.38-.507c-.404-.54-1.217-.532-1.611.016l-.357.495c-.32.444-.936.549-1.385.236l-.34-.238c-.462-.323-.566-.964-.229-1.416l.344-.465c.412-.553.153-1.347-.505-1.551l-.5-.155c-.521-.161-.816-.709-.665-1.233l.115-.398c.156-.541.728-.846 1.265-.675l.572.183c.646.206 1.304-.276 1.304-.953v-.511c0-.552.448-1 1-1h.4c.552 0 1 .448 1 1v.536c0 .677.659 1.158 1.304.952l.51-.163c.533-.17 1.102.131 1.262.666l.119.4c.158.527-.14 1.082-.666 1.243m-13.104 0-.448.137c-.662.201-.925.999-.511 1.553l.311.418c.328.44.24 1.062-.197 1.393l-.306.233c-.442.336-1.072.247-1.405-.196l-.38-.507c-.405-.54-1.217-.532-1.611.016l-.358.495c-.319.444-.936.549-1.384.236l-.34-.238c-.462-.323-.566-.964-.23-1.416l.345-.465c.411-.553.152-1.347-.506-1.551l-.5-.155c-.521-.161-.815-.709-.665-1.233l.115-.398c.156-.541.729-.846 1.265-.675l.573.183c.645.206 1.304-.276 1.304-.953v-.511c0-.552.448-1 1-1h.399c.552 0 1 .448 1 1v.536c0 .677.659 1.158 1.304.952l.51-.163c.533-.17 1.102.131 1.262.666l.12.4c.158.527-.141 1.082-.667 1.243m-13.104 0-.449.137c-.662.201-.924.999-.51 1.553l.311.418c.327.44.239 1.062-.198 1.393l-.306.233c-.441.336-1.072.247-1.405-.196l-.38-.507c-.404-.54-1.217-.532-1.611.016l-.357.495c-.32.444-.936.549-1.385.236l-.34-.238c-.462-.323-.566-.964-.229-1.416l.344-.465c.411-.553.153-1.347-.505-1.551l-.5-.155c-.521-.161-.816-.709-.665-1.233l.115-.398c.156-.541.728-.846 1.265-.675l.572.183c.646.206 1.304-.276 1.304-.953v-.511c0-.552.448-1 1-1h.4c.552 0 1 .448 1 1v.536c0 .677.659 1.158 1.304.952l.51-.163c.533-.17 1.102.131 1.262.666l.119.4c.158.527-.14 1.082-.666 1.243m-13.104 0-.448.137c-.662.201-.925.999-.511 1.553l.311.418c.328.44.24 1.062-.197 1.393l-.306.233c-.442.336-1.072.247-1.405-.196l-.38-.507c-.405-.54-1.217-.532-1.611.016l-.358.495c-.319.444-.936.549-1.384.236l-.34-.238c-.462-.323-.566-.964-.23-1.416l.345-.465c.411-.553.152-1.347-.506-1.551l-.5-.155c-.521-.161-.815-.709-.665-1.233l.115-.398c.156-.541.729-.846 1.265-.675l.573.183c.645.206 1.304-.276 1.304-.953v-.511c0-.552.448-1 1-1h.399c.552 0 1 .448 1 1v.536c0 .677.659 1.158 1.304.952l.51-.163c.533-.17 1.102.131 1.262.666l.12.4c.158.527-.141 1.082-.667 1.243m-13.104 0-.449.137c-.662.201-.924.999-.51 1.553l.311.418c.327.44.239 1.062-.198 1.393l-.306.233c-.441.336-1.072.247-1.405-.196l-.38-.507c-.404-.54-1.217-.532-1.611.016l-.357.495c-.32.444-.936.549-1.385.236l-.34-.238c-.462-.323-.566-.964-.229-1.416l.344-.465c.411-.553.153-1.347-.506-1.551l-.5-.155c-.52-.161-.815-.709-.664-1.233l.115-.398c.156-.541.728-.846 1.265-.675l.572.183c.646.206 1.304-.276 1.304-.953v-.511c0-.552.448-1 1-1h.4c.552 0 1 .448 1 1v.536c0 .677.659 1.158 1.304.952l.51-.163c.533-.17 1.102.131 1.262.666l.119.4c.158.527-.14 1.082-.666 1.243m-8.225 28.566h88.519c.776 0 1.408-.631 1.408-1.408v-26.912c0-.317.151-.615.405-.804l12.831-9.501-12.831-9.502c-.254-.188-.405-.486-.405-.803v-17.962c0-.777-.632-1.408-1.408-1.408h-153.326c-.777 0-1.408.631-1.408 1.408v49.156h.006c1.372-4.582 2.733-9.214 3.949-13.439.123-.429.515-.724.961-.724h11.103c.315 0 .611.148.8.4s.248.579.16.881l-3.769 12.882h8.33l3.931-13.443c.125-.427.516-.72.96-.72h10.992c.317 0 .615.15.803.404.19.254.246.583.154.886l-3.902 12.873h11.003c.312 0 .605.146.795.393.189.248.252.57.17.871l-.722 2.643h12.594c1.879 0 3.408 1.53 3.408 3.409v11.42h3.489c0-.552.448-1 1-1"/></g><path d="m237.0946 97.3701-13.512-10.006v-17.458c0-1.882-1.526-3.408-3.408-3.408h-153.326c-1.882 0-3.408 1.526-3.408 3.408v13.381c0 2.209-1.791 4-4 4h-24.247c-2.21 0-4-1.791-4-4v-15.37c0-.317-.151-.615-.405-.803l-12.833-9.503 12.832-9.501c.255-.189.406-.488.406-.804v-16.912c0-.777.63-1.408 1.408-1.408h17.431c.553 0 1-.448 1-1s-.447-1-1-1h-17.431c-1.882 0-3.408 1.526-3.408 3.408v16.408l-13.513 10.005c-.255.189-.405.487-.405.804s.15.615.405.804l13.513 10.006v17.458c0 1.882 1.526 3.408 3.408 3.408h28.839c1.104 0 2 .896 2 2v27.775h-11.956c-.474 0-.882.332-.979.795l-2.169 10.37c-.061.295.013.602.202.836.191.234.476.37.777.37h8.766c1.924 0 3.271 1.9 2.634 3.716l-.016.045c-.394 1.123-1.455 1.875-2.646 1.875h-10.06c-.476 0-.885.336-.979.802l-2.073 10.276c-.06.295.016.6.207.832.189.232.473.367.773.367h7.403c1.522 0 2.618 1.462 2.19 2.922l-2.968 10.134c-.088.303-.029.629.159.881.19.252.486.4.801.4h11.009c.445 0 .837-.294.96-.723l3.077-10.686c.499-1.734 2.085-2.928 3.89-2.928 2.693 0 4.635 2.58 3.89 5.168l-2.272 7.893c-.087.302-.028.627.162.878.188.251.484.398.799.398h10.88c.444 0 .837-.293.96-.721.357-1.236.781-2.675 1.289-4.378.157-.529-.144-1.086-.673-1.243-.529-.158-1.086.143-1.243.673-.413 1.386-.773 2.599-1.084 3.669h-8.801l3.761-13.061c.087-.302.027-.627-.162-.878s-.485-.398-.799-.398h-10.508c-.445 0-.837.295-.96.723l-3.919 13.614h-8.921l3.824-13.056c.088-.303.03-.629-.159-.881s-.485-.4-.801-.4h-10.562l1.67-8.277h11.808c.439 0 .923-.338 1.074-.751 1.018-2.774 1.69-4.609 2.449-7.642.075-.299.008-.616-.182-.859-.189-.243-.48-.384-.788-.384h-12.629l1.751-8.371h13.894c.442 0 .831-.288.958-.711 1.368-4.561 2.732-9.194 3.961-13.452h9.015l-3.769 12.882c-.088.303-.03.629.16.881.188.252.485.4.8.4h10.414c.444 0 .835-.293.959-.719l3.932-13.444h8.896l-3.902 12.873c-.092.303-.036.632.154.886.188.254.486.404.803.404h11.041l-2.284 8.371h-11.868c-.452 0-.847.302-.966.738l-2.074 7.637c-.082.299-.018.622.171.869s.482.392.794.392h12.71l-1.823 8.277h-14.094c-.441 0-.83.289-.958.712l-.834 2.774c-.159.528.141 1.086.67 1.246.53.156 1.086-.142 1.246-.67.368-1.224 1.495-2.062 2.773-2.062h12c.469 0 .876-.327.977-.786l2.264-10.276c.036-.164.021-.328-.024-.485-.036-.127-.089-.251-.174-.356-.189-.236-.476-.374-.779-.374h-8.96c-1.858 0-3.207-1.765-2.72-3.557.333-1.227 1.448-2.079 2.72-2.079h9.713c.451 0 .846-.302.965-.737l1.562-5.726h13.139c.777 0 1.408.63 1.408 1.408v11.421 37.063c0 .778-.631 1.408-1.408 1.408h-91.157c-.778 0-1.408-.63-1.408-1.408v-15.962c0-.317-.151-.614-.405-.803l-12.833-9.502 12.832-9.501c.255-.189.406-.488.406-.805v-11.911c0-.778.63-1.408 1.408-1.408h11.565c.553 0 1-.448 1-1 0-.553-.447-1-1-1h-11.565c-1.882 0-3.408 1.525-3.408 3.408v11.408l-13.513 10.005c-.255.188-.405.486-.405.804 0 .317.15.615.405.803l13.513 10.006v15.458c0 1.883 1.526 3.408 3.408 3.408h91.157c1.882 0 3.408-1.525 3.408-3.408v-37.063-11.421c0-1.883-1.526-3.408-3.408-3.408h-12.594l.722-2.644c.082-.301.02-.623-.17-.871-.189-.247-.483-.393-.795-.393h-6.959c-2.013 0-3.455-1.943-2.871-3.87l2.73-9.003c.091-.302.035-.631-.155-.885-.188-.254-.486-.405-.802-.405h-10.993c-.444 0-.835.293-.96.72l-3.3 11.286c-.374 1.278-1.547 2.157-2.88 2.157h-2.078c-2.001 0-3.441-1.921-2.879-3.842l2.645-9.039c.088-.303.029-.629-.16-.881-.188-.252-.485-.401-.8-.401h-11.103c-.446 0-.836.288-.959.717-.554 1.924-1.424 4.883-2.207 7.537-.292.989-1.751.776-1.751-.256l.001-42.991c0-.778.63-1.408 1.408-1.408h153.326c.777 0 1.408.63 1.408 1.408v17.962c0 .316.15.615.406.804l12.831 9.502-12.831 9.501c-.256.189-.406.487-.406.804v26.912c0 .777-.631 1.408-1.408 1.408h-88.518c-.553 0-1 .447-1 1 0 .552.447 1 1 1h88.518c1.882 0 3.408-1.526 3.408-3.408v-26.409l13.512-10.005c.255-.188.405-.486.405-.803s-.15-.616-.405-.804" fill="#202225"/><path d="m50.2616 44.9893h-.399c-.553 0-1 .448-1 1v.511c0 .677-.659 1.159-1.305.953l-.572-.183c-.537-.171-1.109.134-1.265.676l-.115.397c-.151.524.145 1.072.665 1.233l.5.155c.658.205.917.998.506 1.551l-.345.465c-.337.452-.233 1.093.229 1.416l.341.238c.448.314 1.065.209 1.384-.235l.357-.496c.394-.548 1.207-.556 1.612-.015l.38.506c.333.444.963.532 1.405.197l.306-.233c.437-.332.525-.954.197-1.394l-.311-.417c-.414-.555-.152-1.353.511-1.554l.448-.137c.526-.16.824-.716.666-1.243l-.119-.399c-.16-.536-.729-.836-1.262-.666l-.51.162c-.645.206-1.304-.275-1.304-.952v-.536c0-.552-.447-1-1-1m9.1123 4.5869.5.155c.658.205.917.998.506 1.552l-.345.464c-.336.453-.232 1.093.23 1.416l.34.238c.448.314 1.065.209 1.384-.235l.358-.496c.394-.548 1.206-.555 1.611-.015l.38.506c.333.444.963.532 1.405.197l.306-.233c.437-.332.525-.954.197-1.394l-.311-.417c-.414-.555-.151-1.353.511-1.554l.448-.137c.526-.16.824-.716.667-1.243l-.12-.399c-.16-.536-.729-.836-1.262-.666l-.51.162c-.645.206-1.304-.275-1.304-.952v-.536c0-.552-.447-1-1-1h-.399c-.552 0-1 .448-1 1v.511c0 .678-.659 1.159-1.304.953l-.573-.183c-.536-.171-1.109.134-1.265.676l-.115.398c-.15.523.145 1.071.665 1.232m20.1762.1836.448-.136c.527-.161.824-.717.667-1.243l-.119-.4c-.161-.535-.729-.836-1.263-.666l-.509.163c-.645.206-1.305-.276-1.305-.953v-.536c0-.552-.447-1-1-1h-.399c-.552 0-1 .448-1 1v.512c0 .677-.659 1.158-1.304.952l-.572-.182c-.537-.172-1.109.134-1.266.675l-.114.398c-.151.523.144 1.071.664 1.232l.5.156c.658.204.917.998.506 1.551l-.345.465c-.336.452-.232 1.093.23 1.416l.34.238c.448.313 1.065.208 1.384-.236l.358-.495c.394-.548 1.206-.556 1.611-.016l.38.506c.333.444.963.533 1.405.197l.307-.233c.437-.331.524-.953.196-1.393l-.311-.418c-.413-.555-.151-1.352.511-1.554m13.1035 0 .448-.136c.527-.161.824-.717.667-1.243l-.119-.4c-.161-.535-.729-.836-1.263-.666l-.509.163c-.645.206-1.305-.276-1.305-.953v-.536c0-.552-.447-1-1-1h-.399c-.552 0-1 .448-1 1v.512c0 .677-.659 1.158-1.304.952l-.572-.182c-.537-.172-1.109.134-1.266.675l-.114.398c-.151.523.144 1.071.664 1.232l.5.156c.658.204.917.998.506 1.551l-.345.465c-.336.452-.232 1.093.23 1.416l.34.238c.448.313 1.065.208 1.384-.236l.358-.495c.394-.548 1.206-.556 1.611-.016l.38.506c.333.444.963.533 1.405.197l.307-.233c.437-.331.524-.953.196-1.393l-.311-.418c-.413-.555-.151-1.352.511-1.554m13.1045 0 .448-.136c.527-.161.824-.717.667-1.243l-.119-.4c-.161-.535-.729-.836-1.263-.666l-.509.163c-.645.206-1.305-.276-1.305-.953v-.536c0-.552-.447-1-1-1h-.399c-.552 0-1 .448-1 1v.512c0 .677-.659 1.158-1.304.952l-.572-.182c-.537-.172-1.109.134-1.266.675l-.114.398c-.151.523.144 1.071.664 1.232l.5.156c.658.204.917.998.506 1.551l-.345.465c-.336.452-.232 1.093.23 1.416l.34.238c.448.313 1.065.208 1.384-.236l.358-.495c.394-.548 1.206-.556 1.611-.016l.38.506c.333.444.963.533 1.405.197l.307-.233c.436-.331.524-.953.196-1.393l-.311-.418c-.413-.555-.151-1.352.511-1.554m13.1035 0 .448-.136c.527-.161.824-.717.667-1.243l-.119-.4c-.161-.535-.729-.836-1.263-.666l-.509.163c-.645.206-1.305-.276-1.305-.953v-.536c0-.552-.447-1-1-1h-.399c-.552 0-1 .448-1 1v.512c0 .677-.659 1.158-1.304.952l-.572-.182c-.537-.172-1.109.134-1.266.675l-.114.398c-.151.523.144 1.071.664 1.232l.5.156c.658.204.917.998.506 1.551l-.345.465c-.336.452-.232 1.093.23 1.416l.34.238c.448.313 1.065.208 1.384-.236l.358-.495c.394-.548 1.206-.556 1.611-.016l.38.506c.333.444.963.533 1.405.197l.307-.233c.436-.331.524-.953.196-1.393l-.311-.418c-.413-.555-.151-1.352.511-1.554m13.1045 0 .448-.136c.527-.161.824-.717.667-1.243l-.119-.4c-.161-.535-.729-.836-1.263-.666l-.509.163c-.645.206-1.305-.276-1.305-.953v-.536c0-.552-.447-1-1-1h-.399c-.552 0-1 .448-1 1v.512c0 .677-.659 1.158-1.304.952l-.572-.182c-.537-.172-1.109.134-1.266.675l-.114.398c-.151.523.144 1.071.664 1.232l.5.156c.658.204.917.998.506 1.551l-.345.465c-.336.452-.232 1.093.23 1.416l.34.238c.448.313 1.065.208 1.384-.236l.358-.495c.394-.548 1.206-.556 1.611-.016l.38.506c.333.444.963.533 1.405.197l.307-.233c.436-.331.524-.953.196-1.393l-.311-.418c-.413-.555-.151-1.352.511-1.554m13.1036 0 .448-.136c.527-.161.824-.717.667-1.243l-.119-.4c-.161-.535-.729-.836-1.263-.666l-.509.163c-.645.206-1.305-.276-1.305-.953v-.536c0-.552-.447-1-1-1h-.399c-.552 0-1 .448-1 1v.512c0 .677-.659 1.158-1.304.952l-.572-.182c-.537-.172-1.109.134-1.266.675l-.114.398c-.151.523.144 1.071.664 1.232l.5.156c.658.204.917.998.506 1.551l-.345.465c-.336.452-.232 1.093.23 1.416l.34.238c.448.313 1.065.208 1.384-.236l.358-.495c.394-.548 1.206-.556 1.611-.016l.38.506c.333.444.963.533 1.405.197l.307-.233c.436-.331.524-.953.196-1.393l-.311-.418c-.413-.555-.151-1.352.511-1.554m13.1044 0 .448-.136c.527-.161.824-.717.667-1.243l-.119-.4c-.161-.535-.729-.836-1.263-.666l-.509.163c-.645.206-1.305-.276-1.305-.953v-.536c0-.552-.447-1-1-1h-.399c-.552 0-1 .448-1 1v.512c0 .677-.659 1.158-1.304.952l-.572-.182c-.537-.172-1.109.134-1.266.675l-.114.398c-.151.523.144 1.071.664 1.232l.5.156c.658.204.917.998.506 1.551l-.345.465c-.336.452-.232 1.093.23 1.416l.34.238c.448.313 1.065.208 1.384-.236l.358-.495c.394-.548 1.206-.556 1.611-.016l.38.506c.333.444.963.533 1.405.197l.307-.233c.436-.331.524-.953.196-1.393l-.311-.418c-.413-.555-.151-1.352.511-1.554m13.1036 0 .448-.136c.527-.161.824-.717.667-1.243l-.119-.4c-.161-.535-.729-.836-1.263-.666l-.509.163c-.645.206-1.305-.276-1.305-.953v-.536c0-.552-.447-1-1-1h-.399c-.552 0-1 .448-1 1v.512c0 .677-.659 1.158-1.304.952l-.572-.182c-.537-.172-1.109.134-1.266.675l-.114.398c-.151.523.144 1.071.664 1.232l.5.156c.658.204.917.998.506 1.551l-.345.465c-.336.452-.232 1.093.23 1.416l.34.238c.448.313 1.065.208 1.384-.236l.358-.495c.394-.548 1.206-.556 1.611-.016l.38.506c.333.444.963.533 1.405.197l.307-.233c.436-.331.524-.953.196-1.393l-.311-.418c-.413-.555-.151-1.352.511-1.554m-56.938 38.6152-.119-.399c-.16-.536-.729-.836-1.262-.666l-.51.162c-.645.206-1.304-.275-1.304-.952v-.536c0-.552-.448-1-1-1h-.4c-.552 0-1 .448-1 1v.511c0 .677-.658 1.159-1.304.953l-.572-.183c-.537-.171-1.109.134-1.265.675l-.115.398c-.151.524.144 1.072.664 1.233l.5.155c.659.205.917.998.506 1.551l-.344.465c-.337.452-.233 1.093.229 1.416l.34.238c.449.313 1.065.208 1.385-.235l.357-.496c.394-.548 1.207-.556 1.611-.016l.38.507c.333.444.964.532 1.405.197l.307-.233c.436-.332.525-.954.197-1.394l-.311-.417c-.414-.556-.152-1.353.51-1.555l.448-.136c.527-.16.825-.716.667-1.243m4.3672-.4346-.115.398c-.151.523.144 1.071.665 1.232l.5.156c.658.204.917.998.506 1.551l-.345.465c-.336.452-.232 1.093.229 1.416l.341.238c.448.313 1.065.208 1.384-.236l.357-.495c.395-.548 1.207-.556 1.612-.016l.38.506c.333.444.963.533 1.404.197l.307-.233c.437-.331.525-.953.197-1.393l-.311-.418c-.414-.555-.152-1.352.511-1.554l.448-.136c.526-.161.824-.717.666-1.243l-.119-.4c-.16-.535-.729-.836-1.262-.666l-.51.163c-.645.206-1.304-.276-1.304-.953v-.536c0-.552-.448-1-1-1h-.399c-.553 0-1 .448-1 1v.512c0 .677-.659 1.158-1.305.952l-.572-.182c-.536-.172-1.109.133-1.265.675m-17.4693.4346-.12-.399c-.16-.536-.729-.836-1.261-.666l-.511.162c-.645.206-1.304-.275-1.304-.952v-.536c0-.552-.447-1-1-1h-.399c-.552 0-1 .448-1 1v.511c0 .677-.659 1.159-1.304.953l-.573-.183c-.536-.171-1.109.134-1.265.675l-.115.398c-.15.524.145 1.072.665 1.233l.5.155c.658.205.917.998.506 1.551l-.345.465c-.336.452-.232 1.093.23 1.416l.34.238c.448.313 1.065.208 1.385-.235l.357-.496c.394-.548 1.206-.556 1.611-.016l.38.507c.333.444.963.532 1.405.197l.306-.233c.437-.332.525-.954.197-1.394l-.31-.417c-.414-.556-.152-1.353.51-1.555l.448-.136c.526-.16.825-.716.667-1.243m30.5738-.4346-.115.398c-.151.523.144 1.071.665 1.232l.5.156c.658.204.917.998.506 1.551l-.345.465c-.336.452-.232 1.093.229 1.416l.341.238c.448.313 1.065.208 1.384-.236l.357-.495c.395-.548 1.207-.556 1.612-.016l.38.506c.333.444.963.533 1.404.197l.307-.233c.437-.331.525-.953.197-1.393l-.311-.418c-.414-.555-.152-1.352.511-1.554l.448-.136c.526-.161.824-.717.666-1.243l-.119-.4c-.16-.535-.729-.836-1.262-.666l-.51.163c-.645.206-1.304-.276-1.304-.953v-.536c0-.552-.448-1-1-1h-.399c-.553 0-1 .448-1 1v.512c0 .677-.659 1.158-1.305.952l-.572-.182c-.536-.172-1.109.133-1.265.675m13.1035 0-.115.398c-.151.523.144 1.071.665 1.232l.5.156c.658.204.917.998.506 1.551l-.345.465c-.336.452-.232 1.093.229 1.416l.341.238c.448.313 1.065.208 1.384-.236l.357-.495c.395-.548 1.207-.556 1.612-.016l.38.506c.333.444.963.533 1.404.197l.307-.233c.437-.331.525-.953.197-1.393l-.311-.418c-.414-.555-.152-1.352.511-1.554l.448-.136c.526-.161.824-.717.666-1.243l-.119-.4c-.16-.535-.729-.836-1.262-.666l-.51.163c-.645.206-1.304-.276-1.304-.953v-.536c0-.552-.448-1-1-1h-.399c-.553 0-1 .448-1 1v.512c0 .677-.659 1.158-1.305.952l-.572-.182c-.536-.172-1.109.133-1.265.675m13.1045 0-.115.398c-.151.523.144 1.071.665 1.232l.5.156c.658.204.917.998.506 1.551l-.345.465c-.336.452-.232 1.093.229 1.416l.341.238c.448.313 1.065.208 1.384-.236l.357-.495c.395-.548 1.207-.556 1.612-.016l.38.506c.333.444.963.533 1.404.197l.307-.233c.437-.331.525-.953.197-1.393l-.311-.418c-.414-.555-.152-1.352.511-1.554l.448-.136c.526-.161.824-.717.666-1.243l-.119-.4c-.16-.535-.729-.836-1.262-.666l-.51.163c-.645.206-1.304-.276-1.304-.953v-.536c0-.552-.448-1-1-1h-.399c-.553 0-1 .448-1 1v.512c0 .677-.659 1.158-1.305.952l-.572-.182c-.536-.172-1.109.133-1.265.675m13.1035 0-.115.398c-.151.523.144 1.071.665 1.232l.5.156c.658.204.917.998.506 1.551l-.345.465c-.336.452-.232 1.093.229 1.416l.341.238c.448.313 1.065.208 1.384-.236l.357-.495c.395-.548 1.207-.556 1.612-.016l.38.506c.333.444.963.533 1.404.197l.307-.233c.437-.331.525-.953.197-1.393l-.311-.418c-.414-.555-.152-1.352.511-1.554l.448-.136c.526-.161.824-.717.666-1.243l-.119-.4c-.16-.535-.729-.836-1.262-.666l-.51.163c-.645.206-1.304-.276-1.304-.953v-.536c0-.552-.448-1-1-1h-.399c-.553 0-1 .448-1 1v.512c0 .677-.659 1.158-1.305.952l-.572-.182c-.536-.172-1.109.133-1.265.675m13.1045 0-.115.398c-.151.523.144 1.071.665 1.232l.5.156c.658.204.917.998.506 1.551l-.345.465c-.336.452-.232 1.093.229 1.416l.341.238c.448.313 1.065.208 1.384-.236l.357-.495c.395-.548 1.207-.556 1.612-.016l.38.506c.333.444.963.533 1.404.197l.307-.233c.437-.331.525-.953.197-1.393l-.311-.418c-.414-.555-.152-1.352.511-1.554l.448-.136c.526-.161.824-.717.666-1.243l-.119-.4c-.16-.535-.729-.836-1.262-.666l-.51.163c-.645.206-1.304-.276-1.304-.953v-.536c0-.552-.448-1-1-1h-.399c-.553 0-1 .448-1 1v.512c0 .677-.659 1.158-1.305.952l-.572-.182c-.536-.172-1.109.133-1.265.675m13.6533 1.6304.5.155c.658.205.917.998.506 1.552l-.345.464c-.336.453-.232 1.093.23 1.416l.34.238c.448.314 1.065.209 1.384-.235l.358-.496c.394-.548 1.206-.555 1.611-.015l.38.506c.333.444.963.532 1.405.197l.306-.233c.437-.332.525-.954.197-1.394l-.311-.417c-.414-.555-.151-1.353.511-1.554l.448-.137c.526-.16.824-.716.667-1.243l-.12-.399c-.16-.536-.729-.836-1.262-.666l-.51.162c-.645.206-1.304-.275-1.304-.952v-.536c0-.552-.448-1-1-1h-.399c-.552 0-1 .448-1 1v.511c0 .678-.659 1.159-1.304.953l-.573-.183c-.536-.171-1.109.134-1.265.676l-.115.398c-.15.523.144 1.071.665 1.232m-70.5566 17.0191c-.16-.536-.729-.836-1.262-.666l-.51.163c-.645.206-1.304-.276-1.304-.953v-.535c0-.552-.448-1-1-1h-.4c-.552 0-1 .448-1 1v.511c0 .677-.658 1.158-1.304.952l-.572-.182c-.537-.172-1.109.133-1.265.675l-.115.398c-.151.523.144 1.071.665 1.232l.5.155c.658.205.917.999.505 1.552l-.344.465c-.337.452-.233 1.092.229 1.416l.341.237c.448.314 1.065.209 1.384-.235l.357-.496c.394-.547 1.207-.555 1.612-.015l.379.506c.333.444.964.532 1.405.197l.306-.233c.437-.332.525-.954.198-1.394l-.311-.417c-.414-.555-.152-1.352.51-1.554l.449-.136c.526-.161.824-.716.666-1.244zm13.1035 0c-.16-.536-.729-.836-1.262-.666l-.51.163c-.645.206-1.304-.276-1.304-.953v-.535c0-.552-.448-1-1-1h-.4c-.552 0-1 .448-1 1v.511c0 .677-.658 1.158-1.304.952l-.572-.182c-.537-.172-1.109.133-1.265.675l-.115.398c-.151.523.144 1.071.665 1.232l.5.155c.658.205.917.999.505 1.552l-.344.465c-.337.452-.233 1.092.229 1.416l.341.237c.448.314 1.065.209 1.384-.235l.357-.496c.394-.547 1.207-.555 1.612-.015l.379.506c.333.444.964.532 1.405.197l.306-.233c.437-.332.525-.954.198-1.394l-.311-.417c-.414-.555-.152-1.352.51-1.554l.449-.136c.526-.161.824-.716.666-1.244zm13.1045 0c-.16-.536-.729-.836-1.262-.666l-.51.163c-.645.206-1.304-.276-1.304-.953v-.535c0-.552-.448-1-1-1h-.4c-.552 0-1 .448-1 1v.511c0 .677-.658 1.158-1.304.952l-.572-.182c-.537-.172-1.109.133-1.265.675l-.115.398c-.151.523.144 1.071.665 1.232l.5.155c.658.205.917.999.505 1.552l-.344.465c-.337.452-.233 1.092.229 1.416l.341.237c.448.314 1.065.209 1.384-.235l.357-.496c.394-.547 1.207-.555 1.612-.015l.379.506c.333.444.964.532 1.405.197l.306-.233c.437-.332.525-.954.198-1.394l-.311-.417c-.414-.555-.152-1.352.51-1.554l.449-.136c.526-.161.824-.716.666-1.244zm13.1035 0c-.16-.536-.729-.836-1.262-.666l-.51.163c-.645.206-1.304-.276-1.304-.953v-.535c0-.552-.448-1-1-1h-.4c-.552 0-1 .448-1 1v.511c0 .677-.658 1.158-1.304.952l-.572-.182c-.537-.172-1.109.133-1.265.675l-.115.398c-.151.523.144 1.071.665 1.232l.5.155c.658.205.917.999.505 1.552l-.344.465c-.337.452-.233 1.092.229 1.416l.341.237c.448.314 1.065.209 1.384-.235l.357-.496c.394-.547 1.207-.555 1.612-.015l.379.506c.333.444.964.532 1.405.197l.306-.233c.437-.332.525-.954.198-1.394l-.311-.417c-.414-.555-.152-1.352.51-1.554l.449-.136c.526-.161.824-.716.666-1.244zm13.1045 0c-.16-.536-.729-.836-1.262-.666l-.51.163c-.645.206-1.304-.276-1.304-.953v-.535c0-.552-.448-1-1-1h-.4c-.552 0-1 .448-1 1v.511c0 .677-.658 1.158-1.304.952l-.572-.182c-.537-.172-1.109.133-1.265.675l-.115.398c-.151.523.144 1.071.665 1.232l.5.155c.658.205.917.999.505 1.552l-.344.465c-.337.452-.233 1.092.229 1.416l.341.237c.448.314 1.065.209 1.384-.235l.357-.496c.394-.547 1.207-.555 1.612-.015l.379.506c.333.444.964.532 1.405.197l.306-.233c.437-.332.525-.954.198-1.394l-.311-.417c-.414-.555-.152-1.352.51-1.554l.449-.136c.526-.161.824-.716.666-1.244zm13.1035 0c-.16-.536-.729-.836-1.262-.666l-.51.163c-.645.206-1.304-.276-1.304-.953v-.535c0-.552-.448-1-1-1h-.4c-.552 0-1 .448-1 1v.511c0 .677-.658 1.158-1.304.952l-.572-.182c-.537-.172-1.109.133-1.265.675l-.115.398c-.151.523.144 1.071.665 1.232l.5.155c.658.205.917.999.505 1.552l-.344.465c-.337.452-.233 1.092.229 1.416l.341.237c.448.314 1.065.209 1.384-.235l.357-.496c.394-.547 1.207-.555 1.612-.015l.379.506c.333.444.964.532 1.405.197l.306-.233c.437-.332.525-.954.198-1.394l-.311-.417c-.414-.555-.152-1.352.51-1.554l.449-.136c.526-.161.824-.716.666-1.244zm5.0371 1.5952.5.155c.658.205.917.998.506 1.552l-.345.464c-.336.453-.232 1.093.23 1.416l.34.238c.448.314 1.065.209 1.384-.235l.358-.496c.394-.548 1.206-.555 1.611-.015l.38.506c.333.444.963.532 1.405.197l.306-.233c.437-.332.525-.954.197-1.394l-.311-.417c-.414-.555-.151-1.352.511-1.554l.448-.137c.526-.16.825-.715.667-1.243l-.12-.399c-.16-.536-.729-.836-1.262-.666l-.51.163c-.645.205-1.304-.276-1.304-.953v-.535c0-.553-.448-1-1-1h-.399c-.552 0-1 .447-1 1v.51c0 .678-.659 1.159-1.304.953l-.573-.183c-.536-.171-1.109.134-1.265.676l-.115.398c-.15.523.144 1.071.665 1.232" fill="#202225"/><path d="m82.2606 139.0693h-10.413c-.316 0-.612-.148-.802-.401-.188-.253-.247-.58-.157-.883l2.263-7.637c.126-.425.516-.716.959-.716h10.413c.315 0 .612.149.801.402s.248.58.158.882l-2.263 7.637c-.126.425-.517.716-.959.716m6.126 11.763.835-2.775c.128-.423.517-.712.958-.712h14.093l1.823-8.276h-12.71c-.312 0-.605-.146-.794-.393s-.253-.569-.171-.869l2.074-7.636c.119-.436.514-.739.965-.739h11.869l2.284-8.37h-11.041c-.317 0-.615-.15-.803-.404-.19-.254-.246-.583-.154-.886l3.902-12.873h-8.896l-3.931 13.443c-.125.427-.516.72-.96.72h-10.414c-.315 0-.612-.148-.8-.4-.19-.252-.248-.578-.16-.881l3.769-12.882h-9.015c-1.229 4.257-2.592 8.89-3.96 13.45-.127.423-.517.713-.958.713h-13.895l-1.751 8.37h12.629c.308 0 .599.142.788.385.19.243.257.56.182.858-.76 3.038-1.433 4.873-2.452 7.653-.144.394-.55.741-.97.741h-11.909l-1.67 8.276h10.562c.316 0 .612.149.801.401s.247.578.159.881l-3.824 13.056h8.921l3.919-13.614c.123-.429.516-.724.961-.724h10.507c.314 0 .61.148.798.399.19.251.25.576.163.878l-3.761 13.061h8.801c.311-1.07.671-2.283 1.084-3.67.157-.529.713-.831 1.243-.673v.001c.461-1.541.985-3.288 1.579-5.263-.529-.16-.829-.718-.67-1.246" fill="#4f545c"/><path d="m82.8035 132.7168-1.078 3.637c-.126.425-.516.716-.959.716h-6.241c-.668 0-1.149-.644-.959-1.285l1.078-3.636c.126-.425.516-.716.959-.716h6.241c.668 0 1.149.643.959 1.284zm2.679-2c.09-.303.031-.63-.158-.883s-.486-.401-.801-.401h-10.413c-.443 0-.833.291-.959.716l-2.263 7.636c-.09.303-.031.63.157.883.19.253.487.402.802.402h10.413c.442 0 .833-.291.959-.716zm132.2493-82.4311c-.834 0-1.51-.676-1.51-1.51 0-.553-.448-1-1-1-.553 0-1 .447-1 1 0 .834-.676 1.51-1.51 1.51-.552 0-1 .447-1 1s.448 1 1 1c.834 0 1.51.676 1.51 1.51 0 .552.447 1 1 1 .552 0 1-.448 1-1 0-.834.676-1.51 1.51-1.51.552 0 1-.447 1-1s-.448-1-1-1m-48.4239 118.6611c-.834 0-1.51-.676-1.51-1.51 0-.553-.448-1-1-1-.553 0-1 .447-1 1 0 .834-.676 1.51-1.51 1.51-.552 0-1 .447-1 1s.448 1 1 1c.834 0 1.51.676 1.51 1.51 0 .552.447 1 1 1 .552 0 1-.448 1-1 0-.834.676-1.51 1.51-1.51.552 0 1-.447 1-1s-.448-1-1-1m-20.7148-14.0112c.256 0 .512-.098.707-.293l1.184-1.183c.39-.389.39-1.023 0-1.414-.391-.39-1.024-.39-1.414 0l-1.184 1.183c-.391.39-.391 1.023-.001 1.414.196.195.452.293.708.293m-5.916 5.9169c.256 0 .512-.098.707-.293l1.183-1.184c.391-.39.391-1.023 0-1.414-.39-.39-1.024-.39-1.414 0l-1.183 1.184c-.391.391-.391 1.023 0 1.414.195.195.451.293.707.293m6.623-2.8906c-.391-.391-1.023-.391-1.414 0s-.391 1.023 0 1.414l1.184 1.184c.195.195.451.293.707.293.255 0 .511-.098.707-.293.39-.391.39-1.024 0-1.414zm-6.1469-3.3193c.195.195.451.293.707.293s.512-.098.707-.293c.391-.391.391-1.023 0-1.414l-1.183-1.183c-.391-.39-1.024-.39-1.414 0-.391.391-.391 1.024 0 1.414zm-88.2413-150.6421c.833 0 1.51.678 1.51 1.51 0 .833-.677 1.511-1.51 1.511s-1.51-.678-1.51-1.511c0-.832.677-1.51 1.51-1.51m0 5.021c1.935 0 3.51-1.576 3.51-3.511 0-1.936-1.575-3.51-3.51-3.51-1.936 0-3.51 1.574-3.51 3.51 0 1.935 1.574 3.511 3.51 3.511" fill="#202225"/></g></svg>