<svg height="162" viewBox="0 0 376 162" width="376" xmlns="http://www.w3.org/2000/svg"><g fill="none" fill-rule="evenodd"><path d="m115.1762 78.9373h29.522c15.563 0 28.295-12.733 28.295-28.295s-12.732-28.295-28.295-28.295h-29.522c-15.562 0-28.295 12.733-28.295 28.295s12.733 28.295 28.295 28.295" fill="#4f545c" fill-opacity=".3"/><path d="m372.2148 68.1682c0 25.299-20.509 45.808-45.808 45.808h-36.096c-4.38 0-7.93 3.55-7.93 7.93v.003c0 4.38 3.55 7.93 7.93 7.93h47.338c7.936 0 14.369 6.433 14.369 14.369 0 7.935-6.433 14.368-14.369 14.368h-281.628c-18.806 0-34.05-15.245-34.05-34.05v-.008c0-18.805 15.244-34.05 34.05-34.05h93.106c18.805 0 34.049-15.245 34.049-34.05v-.008c0-18.805 15.246-34.05 34.051-34.05h109.18c25.299 0 45.808 20.509 45.808 45.808" fill="#4f545c" fill-opacity=".3"/><path d="m26.4081 150.7307c-.726 1.564-.758 3.366-.093 4.955l.193.307c.027.043.051.088.071.134.706 1.629 2.081 2.872 3.774 3.409.64.203 1.301.297 1.957.286.052-7.643-3.27-10.24-4.556-10.95-.554.526-1.017 1.151-1.346 1.859" fill="#72767d"/><path d="m118.0941 131.2224-1.615-2.799c-.499-.087-.994-.196-1.481-.336.005.062.017.121.021.183l.346 5.402c1.149-.145 2.314-.204 3.486-.208-.106-.781-.354-1.543-.757-2.242" fill="#4f545c"/><path d="m115.6317 137.8352.117 1.819c1.32-.731 2.335-1.925 2.832-3.369.316-.917.398-1.882.271-2.821-1.172.004-2.337.063-3.487.208l.005.08c.035.551-.383 1.027-.934 1.062l.134 2.087c.544-.031 1.026.383 1.062.934" fill="#72767d"/><path d="m112.4472 154.759c-.836.892-1.777 1.638-2.785 2.26h7.658c2.146 0 3.891-1.745 3.891-3.891 0-2.145-1.745-3.891-3.891-3.891h-1.747c-.578 2.036-1.626 3.923-3.126 5.522m-46.1836-19.1098c.237-.024.478-.038.721-.038h1.457c3.148 0 6.022 1.168 8.236 3.08l.544-3.535c-.127.009-.253.02-.382.02-3.06 0-5.546-2.486-5.546-5.543v-2.807c0-3.056 2.486-5.543 5.543-5.543.552 0 1.001.448 1.001 1s-.446 1-.998 1c-1.957 0-3.546 1.589-3.546 3.543v.644c.833-1.046 2.109-1.726 3.543-1.726h.002c1.937 0 3.58 1.237 4.23 2.952.1-.033.202-.063.314-.063v-1.914c0-1.499-.744-2.823-1.871-3.652.344-.896.752-1.757 1.229-2.574l-.463-.3c-2.049-1.329-3.882-2.902-5.48-4.67-3.761 2.542-6.449 6.578-7.19 11.392zm5.0171 21.3701h5.086 8.868c1.133 0 2.21-.499 2.954-1.368.752-.878 1.067-1.994.888-3.144-.291-1.864-2.006-3.27-3.991-3.27h-5.019c-.553 0-1-.448-1-1 0-5.859-4.766-10.626-10.625-10.626h-1.457c-2.728 0-4.947 2.22-4.947 4.947v5.218c0 5.097 4.146 9.243 9.243 9.243m59.2812-60.6694c.81 3.797.819 7.631.078 11.313l1.45.94c.148-.296.288-.6.411-.915l.216-.553c1.057-2.712.995-5.672-.174-8.336-.531-1.209-1.269-2.282-2.161-3.202.061.251.126.5.18.753m-25.4746-22.252c-.06-.329-.046-.576-.015-.73.019-.097.059-.187.105-.274-3.079-1.268-6.36-1.933-9.696-1.933-.717 0-1.436.039-2.156.099.039.039.083.071.122.11l2.867 2.829c2.881-.51 5.847-.551 8.773-.101m-24.2339 44.0674c-6.662-7.612-8.527-18.545-4.573-27.994-.19.169-.423.263-.661.263-.254 0-.508-.096-.703-.288-1.255-1.239-2.201-2.675-2.839-4.21-2.384 5.055-3.051 10.738-1.858 16.332 1.396 6.545 5.166 12.164 10.634 15.897" fill="#4f545c"/><path d="m94.5238 93.9392c.356-.549 1.096-.707 1.645-.351s.707 1.096.351 1.645-1.096.706-1.645.351c-.549-.356-.707-1.096-.351-1.645m2.994 1.941c.356-.549 1.096-.707 1.645-.351.548.356.706 1.097.35 1.645-.356.549-1.096.707-1.645.351s-.706-1.096-.35-1.645m-4.873.609c.226 1.061.847 1.968 1.749 2.553l.514.333c.902.584 1.982.781 3.043.556 1.061-.226 1.968-.848 2.552-1.75l.334-.514c.584-.901.782-1.982.556-3.043s-.848-1.967-1.749-2.552l-.515-.334c-.678-.44-1.44-.65-2.193-.65-1.327 0-2.628.651-3.402 1.844l-.333.513c-.585.903-.782 1.984-.556 3.044m32.6803-17.9572 3.843-6.452-4.339 1.76c-.44.177-.925.141-1.333-.102s-.672-.652-.725-1.123l-.702-6.3-5.873 2.382c-.44.177-.926.141-1.334-.102s-.672-.652-.725-1.124l-.519-4.654-6.543 10.984c.152.548 1.091 2.626 6.884 6.077 5.792 3.449 8.099 3.306 8.671 3.178l.91-1.528c.282-.475.896-.63 1.371-.348l.761-1.277c-.474-.283-.63-.896-.347-1.371m-48.4888 54.644c1.957 0 3.546-1.589 3.546-3.543 0-.441.29-.804.686-.936-.649-1.716-2.293-2.953-4.23-2.953h-.002c-1.434 0-2.71.68-3.543 1.726v2.163c0 1.954 1.589 3.543 3.543 3.543" fill="#72767d"/><path d="m274.7089 18.0862c-.061-.061-.14-.09-.219-.09-.08 0-.159.029-.219.09l-4.042 4.042c-.121.121-.121.317 0 .438l4.042 4.042c.121.121.317.121.438 0l4.042-4.042c.075-.075.091-.161.091-.219s-.016-.144-.091-.219zm23.7861 0c-.079-.079-.171-.091-.219-.091-.059 0-.144.016-.219.091l-4.042 4.042c-.076.075-.091.161-.091.219s.015.144.09.218l4.043 4.043c.136.136.262.176.438 0l4.042-4.042c.075-.075.09-.161.09-.219s-.015-.144-.09-.219zm-48.0102 8.522c.136.136.263.176.438 0l4.042-4.042c.075-.075.091-.161.091-.219s-.016-.144-.091-.218l-4.042-4.043c-.079-.079-.171-.091-.219-.091-.058 0-.144.016-.219.091l-4.042 4.042c-.075.075-.091.161-.091.219s.016.144.091.219zm57.9951 72.1679h1.554 2.6c9.374 0 17-7.626 17-17v-1.333h-9v1.333c0 7.853-5.105 14.557-12.154 17m11.1216-52.7334h8.942c-2.415-6.452-8.625-11.066-15.91-11.066h-4.153c5.182 1.796 9.299 5.896 11.121 11.066" fill="#4f545c"/><path d="m270.6855 98.7761.772-1.913c.296-.733.85-1.308 1.558-1.648-.17-.302-.328-.612-.465-.936-.974-2.292-.997-4.825-.064-7.135.66-1.635 1.762-3.042 3.187-4.069.448-.322 1.074-.221 1.395.227.013.017.014.039.026.057.789-.437 1.647-.74 2.537-.904-.003-.023-.016-.042-.017-.066-.035-.551.384-1.027.935-1.061 1.233-.074 2.439.102 3.602.502.008-.42.084-.84.246-1.241.01-.025.021-.049.033-.073l.001-.002c.315-.789.978-1.465 1.834-1.828.605-.257 1.255-.327 1.89-.228.334-.814.908-1.483 1.622-1.885.783-.439 1.672-.513 2.438-.203l.302.122c.768.309 1.356.98 1.613 1.839.235.784.183 1.664-.141 2.482 1.29.91 1.842 2.616 1.226 4.141-.162.401-.398.757-.684 1.064 4.455 2.079 6.566 7.315 4.705 11.926-.118.292-.27.559-.413.832h6.719 2.937c7.049-2.443 12.154-9.147 12.154-17v-1.333h-4.649c-.552 0-1-.448-1-1 0-.553.448-1 1-1h14.6c4.412 0 8-3.589 8-8v-14.4c0-4.412-3.588-8-8-8h-14.6c-.552 0-1-.448-1-1 0-.553.448-1 1-1h3.617c-1.822-5.171-5.939-9.27-11.121-11.067h-60.538c-9.239 0-16.765 7.412-16.98 16.6h16.931c.553 0 1 .448 1 1h9.555c0-.552.447-1 1-1h10.8c4.521 0 8.2 3.679 8.2 8.2v7.8c0 10.476-8.523 19-19 19h-19.2c-3.298 0-6.4-.847-9.106-2.331 1.202 8.205 8.266 14.531 16.8 14.531h15.8z" fill="#72767d"/><path d="m269.0482 59.7761v7.8c0 7.853-5.104 14.556-12.153 17h2.553c9.374 0 17-7.626 17-17v-7.8c0-3.419-2.781-6.2-6.2-6.2h-4.766c2.127 1.255 3.566 3.565 3.566 6.2" fill="#72767d"/><path d="m326.5844 74.4426c2.762 0 5-2.239 5-5v-12.4c0-2.762-2.238-5-5-5h-6.6c-1.104 0-2 .896-2 2v18.4c0 1.104.896 2 2 2z" fill="#4f545c"/><path d="m255.9555 74.3894c0 1.616-1.322 2.938-2.938 2.938h-5.878c-1.617 0-2.939-1.322-2.939-2.938s1.322-2.939 2.939-2.939h5.878c1.616 0 2.938 1.323 2.938 2.939m-25.828 0c0-1.616 1.323-2.939 2.939-2.939h3.526c1.617 0 2.939 1.323 2.939 2.939s-1.322 2.938-2.939 2.938h-3.526c-1.616 0-2.939-1.322-2.939-2.938m17.766-20.813h-18.445c-3.419 0-6.2 2.781-6.2 6.2v7.8c0 9.374 7.626 17 17 17h16.646c7.049-2.444 12.154-9.147 12.154-17v-7.8c0-2.636-1.439-4.946-3.566-6.2h-6.034c-.553 0-1-.448-1-1h-9.555c0 .552-.447 1-1 1" fill="#b9bbbe"/><path d="m247.1391 71.4504c-1.616 0-2.938 1.323-2.938 2.939s1.322 2.938 2.938 2.938h5.878c1.616 0 2.938-1.322 2.938-2.938s-1.322-2.939-2.938-2.939zm-14.0728 5.8775h3.526c1.617 0 2.939-1.322 2.939-2.938 0-1.617-1.322-2.939-2.939-2.939h-3.526c-1.616 0-2.938 1.322-2.938 2.939 0 1.616 1.322 2.938 2.938 2.938m-.3242 63.248v-9.358c-3.142 1.939-5.248 5.402-5.248 9.358v4.8c0 1.875-1.525 3.4-3.399 3.4h-10.801c-2.426 0-4.4 1.974-4.4 4.4s1.974 4.4 4.4 4.4h30.013c-6.251-3.114-10.565-9.555-10.565-17m4.373-26.5996h-10.021c-2.426 0-4.4 1.974-4.4 4.4s1.974 4.4 4.4 4.4h6.456c.718-3.09 1.918-6.047 3.565-8.8" fill="#4f545c"/><path d="m254.6806 152.8972c.191-.474.438-.908.723-1.307l-.237-.096c-.779-.314-1.39-.914-1.718-1.688-.329-.774-.337-1.63-.022-2.409l.2-.497c.316-.781.915-1.391 1.689-1.72.774-.328 1.629-.336 2.409-.021l2.06.831 8.323-20.615c-1.857-.008-3.618-.824-4.834-2.245-1.218-1.423-1.751-3.304-1.462-5.163.48-3.073 3.267-5.391 6.486-5.391h4.978l3.217-7.97-4.099-1.654c-.71-.287-1.268-.818-1.612-1.494l-.114-.046.038-.093c-.009-.019-.022-.036-.03-.055-.068-.159-.113-.324-.154-.488h-6.779c-9.164 0-17.902 4.445-23.375 11.889-3.68 5.005-5.625 10.922-5.625 17.111v10.8c0 9.374 7.625 17 17 17h2.909c-.586-1.514-.582-3.166.029-4.679m31.0532-41.7339c.001-.929.113-1.831.308-2.701l-1.72-.695-1.941 4.809h.465 1.488c.771 0 1.399-.634 1.4-1.413m-11.6304 19.2442c.513.207.76.79.553 1.302l-6.083 15.067h13.176c.771 0 1.399-.628 1.399-1.4v-4.801c0-7.168 5.832-13 13-13h2.294c.606 0 1.1-.493 1.1-1.1 0-.606-.494-1.099-1.1-1.099h-15.597-6.711zm64.7207-4.521-3.693 12.663v.001c-.12.41.101.688.202.789s.381.323.789.202l12.664-3.694c3.193-.931 5.509-3.785 5.761-7.102.178-2.339-.671-4.632-2.329-6.291-1.514-1.513-3.556-2.353-5.679-2.353-.203 0-.407.008-.612.024-3.317.252-6.171 2.567-7.103 5.761" fill="#72767d"/><path d="m311.9491 157.5759c.722 0 1.425-.156 2.09-.463.056-.026.113-.046.172-.061 7.55-1.927 12.822-8.702 12.822-16.476v-22.8c0-9.374-7.626-17-17-17h-4.491-7.408c-.257 0-.509.02-.761.039-1.138 1.209-2.557 2.1-4.122 2.568.274.737.274 1.536-.022 2.27l-.804 1.991c-.495 1.225-1.678 1.97-2.923 1.97-.392 0-.79-.074-1.175-.229l-.402-.163c-.121.63-.191 1.279-.191 1.943-.002 1.881-1.528 3.411-3.401 3.411h-1.488-14.548c-2.242 0-4.18 1.59-4.509 3.699-.202 1.3.154 2.562 1.004 3.554.842.983 2.06 1.547 3.342 1.547h14.711 15.597c1.71 0 3.1 1.391 3.1 3.1s-1.39 3.1-3.1 3.1h-2.293c-6.066 0-11 4.935-11 11v4.8c0 1.875-1.526 3.4-3.4 3.4h-13.983l-.151.376 2.06.831c1.609.65 2.39 2.489 1.74 4.098l-.2.497c-.495 1.225-1.678 1.97-2.924 1.97-.392 0-.789-.074-1.174-.229h-.001l-.235-.095c-.068.45-.182.895-.349 1.33.073.004.143.022.217.022h38.793zm-20.1797-79.2295-.303-.122c-.274-.109-.562.01-.709.092-.29.163-.538.453-.703.8l2.102.849c.122-.364.154-.743.058-1.06-.048-.161-.17-.448-.445-.559" fill="#4f545c"/><path d="m276.8422 84.6975c-1.118.806-1.983 1.911-2.501 3.196-.733 1.814-.715 3.804.05 5.604.237.56.545 1.075.902 1.548.087.027.176.043.262.077l4.051 1.636 5.081-12.585-.815-.329c-1.026-.414-2.099-.589-3.197-.521-.526.036-.975-.352-1.043-.868-.891.164-1.748.467-2.538.904.279.442.178 1.028-.252 1.338m20.5395 12.4981c1.511-3.744-.305-8.02-4.049-9.532l-.816-.329-2.212 5.481c-.011.085-.015.172-.048.253l-2.774 6.87 4.005 1.617c.084.034.157.083.237.123 2.457-.389 4.66-2.013 5.657-4.483" fill="#36393f"/><path d="m270.2641 125.3762-8.625 21.363 4.121 1.663 7.042-17.442c.207-.511.786-.76 1.301-.553l2.032-5.031z" fill="#4f545c"/><path d="m280.224 112.576 2.243-5.557-4.119-1.664-2.916 7.221z" fill="#4f545c"/><path d="m264.6386 156.9172c.193-.478.283-.977.302-1.477l-7.601-3.068c-.33.367-.609.79-.805 1.274-.437 1.082-.426 2.27.03 3.344.457 1.074 1.304 1.906 2.387 2.344 2.233.901 4.785-.183 5.687-2.417" fill="#36393f"/><path d="m285.582 99.171 4.981-12.34-4.12-1.663-4.982 12.339z" fill="#4f545c"/><path d="m270.7812 101.4583c-.024-.047-.054-.09-.076-.139l-.037.093zm-85.605 38.1176c2.757 0 5-2.243 5-5v-10h-14v10c0 2.757 2.243 5 5 5zm-25.6328 0c2.757 0 5-2.243 5-5v-5h-11v5c0 2.757 2.243 5 5 5z" fill="#72767d"/><path d="m148.696 157.576h4v-7h-4z" fill="#4f545c"/><path d="m190.692 157.576h4v-7h-4z" fill="#4f545c"/><path d="m56.3026 157.387v-1.437c0-.569-.462-1.032-1.031-1.032h-1.192c-.488 0-.905-.352-.986-.833-.2-1.184-1.253-2.077-2.449-2.077h-2.144c-1.371 0-2.487 1.116-2.487 2.487v2.892c0 .103.087.189.189.189h4.411 5.5c.101 0 .189-.088.189-.189m-38.9462 0v-.271c0-1.196-.973-2.169-2.169-2.169-1.201 0-2.174.973-2.174 2.169v.271c0 .101.089.189.189.189h3.965c.102 0 .189-.086.189-.189" fill="#72767d"/><g fill="#202225"><path d="m6.6903 157.5759h-5.69c-.553 0-1 .448-1 1s.447 1 1 1h5.69c.552 0 1-.448 1-1s-.448-1-1-1m307.521-.5239c-.06.015-.117.035-.172.061-.665.307-1.369.463-2.09.463h-6.407-38.793c-.075 0-.144-.018-.217-.022.166-.435.281-.88.349-1.33l.235.095h.001c.385.155.782.229 1.174.229 1.246 0 2.428-.745 2.923-1.97l.201-.497c.65-1.61-.131-3.448-1.741-4.098l-2.06-.831.152-.376h13.983c1.874 0 3.4-1.525 3.4-3.4v-4.8c0-6.066 4.934-11 11-11h2.293c1.709 0 3.1-1.391 3.1-3.1s-1.391-3.1-3.1-3.1h-15.597-14.712c-1.281 0-2.499-.564-3.341-1.547-.85-.992-1.206-2.255-1.004-3.554.329-2.109 2.267-3.699 4.509-3.699h14.548 1.488c1.873 0 3.399-1.53 3.4-3.411.001-.664.071-1.313.191-1.943l.403.163c.385.155.782.229 1.175.229 1.245 0 2.428-.745 2.922-1.97l.805-1.991c.296-.734.295-1.533.022-2.27 1.565-.468 2.984-1.359 4.122-2.568.252-.019.504-.039.76-.039h7.409 4.491c9.374 0 17 7.626 17 17v22.8c0 7.774-5.273 14.549-12.822 16.476zm-58.296-7.412c-.284-.115-.507-.334-.626-.616-.12-.282-.123-.594-.008-.879l.201-.497c.236-.587.906-.872 1.494-.635l11.949 4.825c.587.237.872.907.635 1.495l-.201.497c-.236.586-.905.871-1.494.635zm7.459 8.933c-1.288 1.021-3.059 1.369-4.562.702-1.017-.451-1.811-1.257-2.247-2.285-.457-1.074-.467-2.262-.03-3.344l.006-.015c.312-.765 1.232-1.084 1.999-.775l5.197 2.099c.795.321 1.211 1.231.877 2.02-.244.577-.639 1.121-1.24 1.598zm10.73-28.166h-.001c-.515-.207-1.095.042-1.301.553l-6.211 15.383c-.459 1.137-1.754 1.688-2.891 1.228-1.138-.459-1.688-1.754-1.229-2.892l6.668-16.516c.679-1.684 2.314-2.787 4.131-2.787h2.864 6.711 15.597c.606 0 1.1.493 1.1 1.1 0 .606-.494 1.1-1.1 1.1h-2.293c-7.18 0-13 5.82-13 13v4.8c0 .773-.627 1.4-1.4 1.4h-10.692c-1.188 0-1.999-1.202-1.554-2.303l5.153-12.764c.207-.512-.04-1.095-.552-1.302zm-19.424 22.49c-.611 1.513-.615 3.165-.029 4.679h-2.909c-9.389 0-17-7.611-17-17v-10.8c0-6.189 1.945-12.106 5.625-17.111 5.473-7.444 14.212-11.889 23.375-11.889h6.78c.04.165.085.329.153.488.008.019.021.036.03.056.021.046.049.088.073.133.325.626.792 1.166 1.447 1.431l2.547 1.028c.95.384 1.409 1.465 1.026 2.414l-2.523 6.25h-4.978c-3.218 0-6.006 2.318-6.485 5.392-.29 1.858.243 3.739 1.461 5.162 1.216 1.421 2.978 2.237 4.834 2.245l-8.322 20.615-1.954-.788c-.618-.25-1.303-.35-1.953-.203-1.044.237-1.863.94-2.251 1.901l-.157.388c-.249.619-.351 1.304-.203 1.955.236 1.045.94 1.864 1.9 2.251l.236.096c-.284.4-.531.833-.723 1.307zm-14.885 4.679h-26.501c-2.571 0-4.634-2.216-4.378-4.839.222-2.286 2.277-3.961 4.573-3.961h10.605c1.878 0 3.4-1.522 3.4-3.4v-4.8c0-3.204 1.382-6.086 3.576-8.095.638-.584 1.672-.115 1.672.749v7.346c0 6.225 3.015 11.747 7.657 15.21.767.572.353 1.79-.604 1.79zm-7.022-34.8h-5.679c-2.571 0-4.634-2.216-4.379-4.839.223-2.286 2.278-3.961 4.574-3.961h8.122c.748 0 1.235.793.885 1.454-1.109 2.101-1.968 4.308-2.561 6.592-.115.442-.505.754-.962.754zm54.941-23.418 4.569-11.438c.129-.323.496-.479.818-.349 3.498 1.412 5.567 5.21 4.547 8.842-.817 2.909-3.215 4.836-5.924 5.266-.079-.04-.153-.09-.236-.124l-3.425-1.382c-.321-.13-.477-.495-.349-.815zm.789-13.358c1.138.459 1.687 1.754 1.228 2.892l-4.149 10.279-4.121-1.664 4.149-10.279c.46-1.137 1.755-1.688 2.893-1.228zm1.551-6.884c.165-.347.413-.636.703-.799.147-.083.435-.202.709-.093l.303.122c.275.112.397.398.445.559.096.317.064.697-.058 1.06zm2.488 3.162c.757.305 1.125 1.17.818 1.929-.148.367-.43.654-.794.808-.363.155-.766.159-1.133.011l-4.363-1.761c-.366-.148-.653-.43-.808-.794s-.158-.767-.01-1.134l.001-.002c.148-.366.43-.653.794-.808.186-.079.382-.119.579-.119.188 0 .375.037.554.109zm-19.4 18.819c-.284-.114-.506-.333-.626-.615s-.123-.594-.008-.878l.804-1.992c.115-.285.334-.507.616-.627.144-.061.296-.092.448-.092.145 0 .291.028.43.084l15.933 6.433c.285.115.507.333.627.616.12.282.123.593.008.878l-.804 1.991c-.237.587-.908.871-1.494.635zm5.915 11.479h-1.064c-1.225 0-2.061-1.239-1.602-2.376l1.124-2.784c.459-1.138 1.754-1.688 2.892-1.229 1.137.459 1.688 1.754 1.228 2.892l-.975 2.415c-.264.654-.898 1.082-1.603 1.082zm6.985-4.114c-.195.867-.307 1.765-.309 2.69-.001.782-.618 1.424-1.4 1.424h-1.488-.465l1.247-3.088c.384-.95 1.465-1.41 2.415-1.026zm-38.1-9.686c-6.99 0-12.995-4.245-15.599-10.29-.682-1.584.792-3.209 2.444-2.712 1.73.521 3.563.802 5.461.802h19.2c10.493 0 19-8.506 19-19v-7.8c0-4.529-3.671-8.2-8.2-8.2h-10.8c-.552 0-1 .448-1 1s.448 1 1 1h6.034 4.766c3.424 0 6.2 2.776 6.2 6.2v7.8c0 9.389-7.611 17-17 17h-2.553-16.647c-9.389 0-17-7.611-17-17v-7.8c0-3.424 2.776-6.2 6.2-6.2h18.446c.552 0 .999-.448 1-1 0-.552-.448-1-1-1h-14.738c-1.237 0-2.177-1.111-1.979-2.332 1.31-8.078 8.322-14.268 16.765-14.268h60.539 4.152c6.062 0 11.38 3.195 14.386 7.986.84 1.338-.111 3.081-1.691 3.081h-5.727-3.617c-.552 0-1 .447-1 1 0 .552.448 1 1 1h14.601c4.418 0 8 3.581 8 8v14.4c0 4.418-3.582 8-8 8h-14.601c-.552 0-1 .447-1 1 0 .552.448 1 1 1h4.649c5.97.884 8.738 8.067 4.741 12.588-3.115 3.523-7.668 5.745-12.741 5.745h-2.6-1.553-2.938-6.719c.143-.273.295-.539.413-.831 1.861-4.612-.25-9.848-4.705-11.927.286-.307.522-.663.684-1.064.616-1.525.064-3.231-1.226-4.141.325-.818.376-1.698.141-2.482-.257-.859-.845-1.529-1.613-1.839l-.302-.122c-.766-.31-1.655-.235-2.438.203-.713.402-1.288 1.071-1.622 1.885-.634-.099-1.285-.029-1.89.228-.856.364-1.519 1.039-1.834 1.828l-.001.002c-.011.024-.023.048-.032.073-.163.401-.239.821-.247 1.241-1.163-.4-2.369-.576-3.602-.502-.551.035-.97.51-.935 1.061.001.024.014.043.017.066.07.521.527.912 1.059.868.754-.063 2.413.379 3.338.65.356.104.541.493.402.837l-4.589 11.367c-.13.321-.495.476-.817.347l-3.469-1.401c-.086-.035-.175-.05-.262-.077-.357-.474-.665-.989-.902-1.548-.968-2.278-.741-4.859.69-7.002.493-.74 1.223-1.272 1.867-1.887.339-.324.4-.846.146-1.249-.011-.019-.013-.04-.026-.058-.321-.448-.947-.549-1.395-.227-1.425 1.027-2.527 2.434-3.187 4.069-.933 2.31-.91 4.844.064 7.136.137.323.295.633.465.935-.708.34-1.262.915-1.557 1.648l-.773 1.913h-6.943zm-1.5-76.21c-.075-.075-.09-.16-.09-.219 0-.058.015-.144.09-.219l4.043-4.042c.075-.075.16-.091.219-.091.048 0 .14.012.219.091l4.042 4.043c.075.074.09.16.09.218 0 .059-.015.144-.091.219l-4.041 4.042c-.176.176-.302.136-.438.001 0-.001-.001-.001-.001-.001zm-56.75 126.01h-35.997-6c-1.656 0-3-1.343-3-3v-1c0-1.657 1.344-3 3-3h10.848 1 21.633 4 10.516c1.657 0 3 1.343 3 3v1c0 1.657-1.343 3-3 3zm4 9h-2c-.552 0-1-.448-1-1v-4c0-1.105.895-2 2-2s2 .895 2 2v4c0 .552-.447 1-1 1zm-6 0h-31.997c-.552 0-1-.448-1-1v-4c0-1.105.896-2 2-2h29.997c1.105 0 2 .895 2 2v4c0 .552-.447 1-1 1zm-35.997 0h-2c-.552 0-1-.448-1-1v-4c0-1.105.896-2 2-2 1.105 0 2 .895 2 2v4c0 .552-.447 1-1 1zm1.848-23v-1c0-2.209 1.791-4 4-4h3c2.209 0 4 1.791 4 4v1c0 2.761-2.239 5-5 5h-1c-2.761 0-5-2.239-5-5zm22.633 0v-7c0-1.657 1.343-3 3-3h8c1.657 0 3 1.343 3 3v7c0 2.761-2.238 5-5 5h-4c-2.761 0-5-2.239-5-5zm-58.856 22.443h-7.658c1.007-.622 1.948-1.368 2.785-2.26 1.5-1.599 2.548-3.486 3.126-5.522h1.747c2.145 0 3.891 1.746 3.891 3.891 0 2.146-1.746 3.891-3.891 3.891zm-23.468 0h-4.208c.02-.023.043-.043.064-.067 1.121-1.309 1.611-3.041 1.345-4.752-.442-2.83-3.007-4.963-5.967-4.963h-4.059c-.269-3.409-1.905-6.433-4.35-8.545-2.214-1.913-5.088-3.08-8.236-3.08h-1.457c-.243 0-.483.013-.721.037l1.344-8.734c.641-4.164 2.739-7.746 5.728-10.282.772-.656 1.926-.582 2.651.126 1.3 1.272 2.733 2.424 4.291 3.434l.463.3 7.601 4.93c4.526 2.935 9.703 4.451 14.999 4.451 1.955 0 3.927-.207 5.887-.625 1.218-.259 2.404-.599 3.557-1.008.1.066.138.092.239.158l.351 5.481c.036.551.515.974 1.062.934.551-.035.969-.511.934-1.062l-.006-.08-.345-5.401c-.004-.062-.016-.122-.021-.183.487.14.982.248 1.481.335l1.615 2.799c.403.699.651 1.462.757 2.243.128.939.045 1.903-.27 2.82-.497 1.444-1.513 2.638-2.833 3.369l-.117-1.819c-.035-.551-.518-.965-1.062-.934-.551.036-.969.511-.934 1.062l.417 6.49c.206 3.21-.782 6.437-2.95 8.814-2.205 2.418-5.228 3.752-8.493 3.752zm-5.663-1.368c-.745.87-1.822 1.368-2.955 1.368h-8.868-5.086c-5.096 0-9.243-4.146-9.243-9.243v-5.218c0-2.727 2.219-4.946 4.947-4.946h1.457c5.859 0 10.625 4.766 10.625 10.625 0 .552.448 1 1 1h5.02c1.984 0 3.7 1.406 3.99 3.271.179 1.149-.136 2.266-.887 3.143zm-17.97-53.383c-.936-4.388-.727-8.83.556-12.982.408-1.317 2.125-1.567 2.964-.473.357.465.749.91 1.177 1.333.195.192.449.288.703.288.238 0 .471-.094.661-.263.015-.014.035-.019.051-.034.696-.767-.362-1.745-.809-2.294-3.463-4.251-3.239-10.536.698-14.525l.418-.423c4.23-4.28 11.127-4.322 15.41-.095l5.496 5.424c.393.387 1.026.384 1.415-.009.387-.393.383-1.027-.01-1.415l-2.635-2.602s-2.95-2.899-2.989-2.938c.719-.06 1.439-.099 2.156-.099 3.336 0 6.617.664 9.696 1.933-.046.086-.086.177-.105.274-.031.154-.045.401.015.73.228 1.257 1.601 3.776 7.848 7.497 4.751 2.831 7.561 3.522 9.173 3.522.239 0 .443-.019.631-.044 4.404 4.985 6.656 11.455 6.44 17.958-.053 1.584-1.839 2.492-3.168 1.63.057-.134.095-.28.099-.434.011-.365.017-.729.017-1.091-.001-.459-.009-.915-.025-1.366-.024-.656-.556-1.166-1.232-1.146-.657.024-1.169.575-1.146 1.231.015.424.023.852.024 1.283 0 .018-.001.037-.001.055l-8.774-5.69c-1.406-.911-3.086-1.22-4.735-.868-1.648.352-3.058 1.319-3.968 2.725l-3.12 4.809c-4.277 6.595-2.398 15.409 4.197 19.686 0 0 .906.585 1.876 1.21.908.586.672 1.995-.385 2.222l-.028.006c-6.749 1.44-13.632.178-19.381-3.548l-8.064-5.23c-.175-.112-.341-.233-.512-.35-5.468-3.733-9.238-9.351-10.634-15.897zm60.848 8.055c.957.621 1.617 1.583 1.856 2.708.241 1.125.031 2.273-.589 3.23l-3.121 4.811c-1.77 2.729-4.509 4.608-7.715 5.292-3.207.684-6.474.084-9.203-1.684l-3.86-2.503c-5.659-3.67-7.277-11.259-3.608-16.919l3.121-4.81c.62-.958 1.582-1.617 2.707-1.857s2.272-.03 3.23.59zm1.476-11.524c1.169 2.664 1.231 5.624.174 8.336l-.216.553c-.123.315-.263.618-.412.915l-1.45-.94c.741-3.682.732-7.516-.077-11.313-.055-.254-.12-.503-.18-.754.892.921 1.63 1.994 2.161 3.203zm-76.241 57.777c0 .55-.45 1-1 1h-4.689-3.6c-.55 0-1-.45-1-1v-2.081c0-1.374 1.114-2.487 2.487-2.487h1.958c1.163 0 2.466.9 2.631 2.052.071.494.494.858.99.858h1.192c.569 0 1.031.462 1.031 1.031zm-25.93 2.965-.019-.006c-1.693-.536-3.068-1.779-3.774-3.408-.02-.047-.044-.092-.071-.135l-.193-.307c-.666-1.588-.633-3.39.093-4.954.1-.218.214-.427.339-.628.494-.795 1.615-.917 2.294-.272 1.299 1.236 2.885 3.639 3.21 8.115.075 1.039-.886 1.907-1.879 1.595zm267.685-141.455c.074-.075.16-.091.218-.091.048 0 .141.012.22.091l4.042 4.043c.074.074.09.16.09.218 0 .059-.016.144-.091.219l-4.041 4.042c-.176.176-.303.136-.438.001 0-.001-.001-.001-.001-.001l-4.042-4.042c-.075-.075-.091-.16-.091-.219 0-.058.016-.144.091-.219zm76.923 139.49h-48.003c-2.547 0-3.919-2.96-2.295-4.922 2.74-3.311 4.351-7.54 4.351-12.078v-22.8c0-6.437-3.221-12.131-8.134-15.567-1.274-.891-1.135-2.777.253-3.476 6.216-3.129 10.492-9.56 10.481-16.984-.001-.77.559-1.407 1.307-1.589 4.381-1.061 7.645-5.015 7.645-9.717v-14.4c0-5.154-3.92-9.406-8.935-9.94-.586-.062-1.102-.447-1.315-.997-2.76-7.089-9.649-12.13-17.702-12.13h-14.358-46.571v-4.514c.23-.111.446-.253.633-.44l4.041-4.041c.437-.436.677-1.016.677-1.634 0-.617-.24-1.197-.677-1.633l-4.041-4.042c-.185-.184-.403-.322-.633-.428v-12.485c0-.038 0-.137.129-.18.129-.042.188.036.211.065l8.808 11.627c.876 1.156 2.613 1.156 3.489 0l9.997-13.197c.083-.109.22-.109.303 0l9.996 13.197c.418.551 1.054.867 1.745.867h.001c.691-.001 1.327-.316 1.744-.867l8.809-11.627c.022-.029.082-.107.21-.065.129.043.129.142.129.18v12.484c-.231.107-.448.244-.633.429l-4.041 4.042c-.437.436-.678 1.016-.678 1.633 0 .618.241 1.198.677 1.633l4.042 4.042c.436.437 1.016.677 1.633.677s1.197-.24 1.634-.677l4.041-4.041c.437-.436.677-1.016.677-1.634 0-.617-.24-1.197-.677-1.633l-4.041-4.042c-.185-.184-.403-.322-.634-.428l.001-12.38c0-.915-.514-1.791-1.362-2.132-.945-.381-1.969-.094-2.573.704l-5.771 7.617c-1.754 2.315-4.623 2.315-6.377 0l-6.959-9.187c-.417-.551-1.053-.866-1.745-.866s-1.327.316-1.744.866l-6.96 9.187c-1.754 2.315-4.623 2.315-6.377 0l-5.677-7.495c-.569-.75-1.538-1.165-2.442-.903-.959.277-1.585 1.115-1.585 2.104v12.484c-.231.107-.449.244-.634.429l-4.041 4.042c-.437.436-.677 1.016-.677 1.633 0 .618.24 1.198.676 1.633l4.042 4.042c.186.187.403.329.634.441v4.513h-1.762c-9.817 0-17.905 7.488-18.885 17.051-.086.843-.667 1.583-1.492 1.777-3.616.852-6.317 4.099-6.317 7.972v7.8c0 5.944 2.756 11.245 7.046 14.729.439.358.715.868.773 1.432.986 9.556 9.062 17.039 18.875 17.039h.388c1.024 0 1.401 1.375.505 1.869-3.909 2.155-7.37 5.15-10.08 8.836-.119.161-.22.332-.335.495h-11.103c-3.252 0-6.154 2.331-6.569 5.557-.501 3.903 2.54 7.243 6.346 7.243h6.054c-.222 1.361-.334 2.746-.373 4.143-4.305 2.121-7.281 6.542-7.281 11.657v4.8c0 .773-.627 1.4-1.4 1.4h-10.525c-3.56 0-6.713 2.91-6.674 6.47.018 1.677.688 3.198 1.763 4.33h-10.966c-.552 0-1-.448-1-1v-4c0-1.105.895-2 2-2h1c.553 0 1-.448 1-1v-9c0-.552-.447-1-1-1h-7.595c-.757 0-1.261-.821-.878-1.474.608-1.036.957-2.24.957-3.526v-9c0-1.657-1.343-3-3-3h-12c-1.657 0-3 1.343-3 3v9c0 1.286.349 2.49.957 3.526.384.653-.121 1.474-.878 1.474h-7.791c-.757 0-1.261-.821-.878-1.474.608-1.036.957-2.24.957-3.526v-3c0-2.209-1.791-4-4-4h-7c-2.209 0-4 1.791-4 4v3c0 1.286.349 2.49.958 3.526.382.653-.122 1.474-.879 1.474h-7.927c-.552 0-1 .448-1 1v9c0 .552.448 1 1 1h1c1.105 0 2 .895 2 2v4c0 .552-.447 1-1 1h-20.881c-1.37 0-2.311-1.337-1.888-2.639.308-.95.381-2.005.147-3.097-.587-2.742-3.161-4.603-5.964-4.603-.586 0-1.059-.485-1.029-1.07.024-.495.022-.995-.01-1.498l-.139-2.16c-.027-.425.218-.807.596-1.003 2.832-1.469 4.658-4.524 4.361-8.01-.104-1.223-.552-2.392-1.167-3.454-.364-.632.039-1.41.763-1.49.477-.053.955-.13 1.431-.232 3.728-.795 6.916-2.982 8.976-6.16l2.956-4.558c1.011-1.558 1.435-3.476.965-5.273-.117-.448-.282-.876-.489-1.279-.361-.704-.438-1.513-.122-2.239.056-.131.111-.263.163-.397l.104-.266c1.086-2.784 1.318-5.868.437-8.723-.949-3.081-2.929-5.592-5.563-7.212-.975-2.573-2.316-4.961-3.979-7.107-.572-.738-.601-1.762-.106-2.553l.001-.002c.283-.475.127-1.088-.347-1.371-.475-.282-1.089-.127-1.371.348l-.002.003c-.638 1.084-1.911 1.638-3.128 1.32-1.373-.359-3.442-1.181-6.451-2.973-2.975-1.772-4.669-3.182-5.635-4.208-.864-.92-.988-2.308-.342-3.392l4.113-6.904c.491-.823 1.747-.552 1.853.401l.189 1.696c.053.472.317.881.725 1.124s.893.279 1.333.102l4.651-1.886c.614-.249 1.296.157 1.369.816l.556 4.987c.053.472.317.881.725 1.124s.893.279 1.333.102l1.581-.642c.888-.359 1.725.616 1.235 1.439l-2.32 3.895c-.283.475-.128 1.088.347 1.371.473.282 1.088.127 1.371-.348l4.601-7.723c.331-.555.27-1.257-.151-1.748-.421-.49-1.105-.655-1.705-.413l-5.102 2.068-.703-6.299c-.052-.471-.316-.881-.724-1.124-.408-.242-.893-.278-1.334-.101l-5.873 2.381-.611-5.471c-.071-.642-.543-1.166-1.174-1.302-.631-.138-1.278.143-1.609.699l-5.445 9.139c-.567.952-1.722 1.37-2.769 1.008-4.264-1.473-8.839-1.881-13.396-1.152-2.579-1.564-5.645-2.204-8.794-1.688-2.772.454-5.291 1.891-7.266 3.89l-.192.194c-2.725 2.761-3.937 6.45-3.66 10.044.066.853-.159 1.694-.545 2.457-2.834 5.614-3.666 11.996-2.328 18.271.698 3.271 1.947 6.326 3.673 9.065.783 1.243.619 2.856-.463 3.851-3.043 2.801-5.166 6.617-5.842 11.011l-1.023 6.648c-.237 1.537-.935 3.005-2.12 4.013-1.498 1.274-2.451 3.169-2.451 5.285v5.218c0 2.731.98 5.235 2.607 7.184.869 1.042.181 2.616-1.176 2.616h-1.539c-.899 0-1.627-.728-1.627-1.627 0-1.674-1.357-3.031-3.031-3.031h-.429c-.645-1.727-2.295-2.91-4.198-2.91h-.45c.312-1.212.308-2.513-.106-3.777-.105-.322-.366-.568-.693-.655-.329-.09-.677-.003-.928.225-.231.209-.508.381-.824.512-1.839.761-2.857-.594-3.125-1.027-.156-.251-.414-.421-.707-.463s-.589.047-.809.244c-.23.206-.504.375-.816.504-.717.298-1.389.306-1.995.023-.67-.313-1.221-.979-1.474-1.782-.166-.527-.727-.82-1.254-.654-.523.165-.813.719-.655 1.242.002.005 0 .008.002.012.424 1.349 1.349 2.44 2.536 2.994 1.119.521 2.366.526 3.605.013.176-.073.345-.154.508-.243 1.277 1.347 3.127 1.741 4.95.985.004-.002.009-.004.013-.006.025.653-.089 1.296-.322 1.894-1.993.179-3.617 1.646-3.998 3.573l-8.699 5.304c-.35.212-.718.384-1.096.522-.049-6.493-2.396-9.797-4.242-11.379.062-.286.074-.344.136-.63l3.29-.992c.529-.16.828-.718.669-1.247-.16-.528-.716-.824-1.247-.669l-3.14.948c-1.06.319-2.074.805-2.927 1.51-2.945 2.431-3.733 6.338-2.337 9.559.02.046.043.091.071.134l.195.312c.945 2.125 2.754 3.744 4.973 4.448.805.255 1.635.381 2.461.381 1.478 0 2.945-.403 4.235-1.189l6.401-3.903c.503-.307 1.175.042 1.168.632-.013 1.22.972 2.213 2.189 2.213h4.411 5.5 91.582 6 35.997 6 17.602 38.448 4.167c.633.69 1.399 1.251 2.293 1.612.779.315 1.583.463 2.376.463 1.779 0 3.484-.763 4.691-2.075h1.48 38.793 6.407 63.031c.552 0 1-.448 1-1s-.448-1-1-1z"/><path d="m107.0981 142.446c-.391-.391-1.023-.391-1.414 0l-1.467 1.467-1.467-1.467c-.39-.391-1.023-.391-1.414 0-.39.391-.39 1.023 0 1.414l1.467 1.467-1.467 1.467c-.39.39-.39 1.023 0 1.414.196.195.451.293.707.293s.512-.098.707-.293l1.467-1.467 1.467 1.467c.195.195.451.293.707.293s.512-.098.707-.293c.391-.391.391-1.024 0-1.414l-1.467-1.467 1.467-1.467c.391-.391.391-1.023 0-1.414m14.5932-51.9487c.162.505.629.827 1.132.827.12 0 .243-.018.363-.057.626-.201.97-.871.77-1.496-.467-1.455-.826-2.308-.841-2.343-.255-.605-.953-.889-1.557-.632-.605.255-.888.952-.634 1.558.004.007.337.8.767 2.143m1.1782 4.4819c.157.756.296 1.523.413 2.279.09.589.597 1.009 1.173 1.009.061 0 .122-.004.183-.014.649-.1 1.095-.707.995-1.356-.123-.798-.269-1.606-.435-2.403-.135-.643-.763-1.055-1.407-.922-.643.134-1.056.764-.922 1.407m-43.0732-8.7773c.258 0 .516-.099.712-.297.388-.394.384-1.027-.009-1.415-.941-.928-1.464-2.166-1.473-3.488-.008-1.321.499-2.567 1.426-3.507l.419-.423c.927-.94 2.166-1.463 3.487-1.472 1.304-.002 2.567.498 3.507 1.426.393.387 1.026.384 1.415-.009.388-.393.384-1.026-.009-1.415-1.321-1.303-3.082-2.024-4.926-2.002-1.855.013-3.595.747-4.898 2.067l-.418.423c-1.303 1.321-2.014 3.07-2.002 4.925.012 1.856.746 3.596 2.066 4.899.196.192.449.288.703.288m13.4043 7.2437.333-.513c.774-1.194 2.075-1.844 3.402-1.844.753 0 1.515.21 2.194.65l.514.333c.902.585 1.523 1.492 1.749 2.553.226 1.06.029 2.141-.556 3.043l-.333.514c-.585.902-1.491 1.523-2.553 1.749-1.061.226-2.141.028-3.043-.556l-.514-.333c-.901-.585-1.523-1.491-1.749-2.552s-.029-2.142.556-3.044m.105 7.274.514.333c.986.64 2.114.97 3.268.97.425 0 .854-.045 1.281-.136 1.583-.337 2.937-1.267 3.812-2.617l.334-.514c1.814-2.797 1.014-6.548-1.783-8.361l-.514-.334c-2.796-1.814-6.548-1.013-8.362 1.783l-.333.514c-.875 1.35-1.172 2.966-.834 4.549s1.267 2.937 2.617 3.813"/><path d="m94.8749 95.5837c.549.356 1.289.198 1.645-.351.355-.548.198-1.289-.351-1.645s-1.289-.197-1.645.351c-.356.549-.198 1.289.351 1.645m2.9932 1.9414c.549.356 1.289.198 1.645-.351.356-.548.198-1.289-.351-1.645-.548-.356-1.289-.198-1.645.351s-.198 1.289.351 1.645m-16.4859 31.108c-.111 0-.213.03-.313.063-.397.133-.687.496-.687.937 0 1.954-1.589 3.543-3.546 3.543-1.954 0-3.543-1.589-3.543-3.543v-2.163-.644c0-1.954 1.589-3.543 3.546-3.543.552 0 .999-.448.999-1s-.45-1-1.002-1c-3.057 0-5.543 2.487-5.543 5.543v2.807c0 3.057 2.486 5.543 5.546 5.543.129 0 .255-.011.382-.02 2.878-.197 5.161-2.595 5.161-5.523 0-.552-.448-1-1-1m197.4595-106.2862c0 .059-.016.144-.091.219l-4.042 4.042c-.121.121-.317.121-.438 0l-4.042-4.042c-.121-.12-.121-.317 0-.438l4.042-4.042c.06-.06.139-.09.219-.09s.159.03.219.09l4.043 4.043c.074.074.09.16.09.218m-5.985-5.675-4.042 4.042c-.901.901-.901 2.366 0 3.266l4.042 4.042c.45.45 1.042.676 1.633.676s1.183-.226 1.633-.676l4.042-4.041c.437-.436.677-1.016.677-1.634 0-.617-.24-1.197-.677-1.633l-4.042-4.042c-.9-.9-2.366-.9-3.266 0m73.0705 103.4533c.205-.016.409-.023.612-.023 2.123 0 4.165.839 5.679 2.353 1.658 1.658 2.507 3.951 2.329 6.29-.252 3.317-2.568 6.172-5.761 7.103l-12.664 3.694c-.408.121-.688-.102-.789-.203s-.322-.379-.202-.789v-.001l3.693-12.663c.932-3.194 3.786-5.509 7.103-5.761m-9.023 5.201-3.693 12.663c-.287.982-.015 2.041.708 2.764.532.533 1.247.821 1.98.821.261 0 .525-.037.783-.113l12.664-3.693c3.988-1.164 6.88-4.728 7.195-8.872.222-2.92-.838-5.784-2.909-7.855-2.072-2.072-4.935-3.135-7.857-2.91-4.142.315-7.707 3.206-8.871 7.195m-54.3599-24.5662c-.825-.333-1.764.065-2.097.891-.333.824.066 1.763.89 2.096.826.333 1.765-.065 2.098-.89.333-.826-.066-1.764-.891-2.097m-5.9751-2.4121c-.825-.333-1.764.065-2.097.891-.333.824.066 1.763.891 2.096s1.764-.066 2.097-.89c.333-.826-.066-1.764-.891-2.097m11.9498 4.8242c-.825-.333-1.764.066-2.097.891s.066 1.763.891 2.096 1.764-.065 2.097-.89-.066-1.764-.891-2.097m-271.1626 54.2149c0 .103-.087.189-.189.189h-3.965c-.1 0-.189-.088-.189-.189v-.271c0-1.196.973-2.169 2.174-2.169 1.196 0 2.169.973 2.169 2.169zm-2.173-4.44c-2.299 0-4.17 1.871-4.17 4.169v.271c0 1.207.982 2.189 2.189 2.189h3.965c1.207 0 2.189-.982 2.189-2.189v-.271c0-2.298-1.871-4.169-4.173-4.169zm123.4923-93.7046c.834 0 1.51.676 1.51 1.51 0 .553.448 1 1 1s1-.447 1-1c0-.834.676-1.51 1.51-1.51.552 0 1-.448 1-1s-.448-1-1-1c-.834 0-1.51-.676-1.51-1.51 0-.552-.448-1-1-1s-1 .448-1 1c0 .834-.676 1.51-1.51 1.51-.552 0-1 .448-1 1s.448 1 1 1m21.3677 50.7237h.51c.552 0 1 .448 1 1v.51c0 .552.448 1 1 1 .553 0 1-.448 1-1v-.51c0-.552.448-1 1-1h.51c.552 0 1-.448 1-1s-.448-1-1-1h-.51c-.552 0-1-.448-1-1v-.51c0-.552-.447-1-1-1-.552 0-1 .448-1 1v.51c0 .552-.448 1-1 1h-.51c-.552 0-1 .448-1 1s.448 1 1 1m37.8188-26.1641c.256 0 .512-.098.707-.293l1.183-1.184c.391-.39.391-1.023 0-1.414-.39-.39-1.024-.39-1.414 0l-1.183 1.184c-.391.391-.391 1.024 0 1.414.195.195.451.293.707.293m-5.916 5.916c.256 0 .512-.098.707-.293l1.183-1.183c.391-.391.391-1.024 0-1.414-.39-.391-1.023-.391-1.414 0l-1.183 1.183c-.391.391-.391 1.023 0 1.414.195.195.451.293.707.293m6.3921-.2929c.195.195.451.293.707.293s.512-.098.707-.293c.391-.391.391-1.023 0-1.414l-1.183-1.183c-.391-.391-1.023-.391-1.414 0-.391.39-.391 1.023 0 1.414zm-5.916-5.9161c.195.195.451.293.707.293s.512-.098.707-.293c.391-.39.391-1.023 0-1.414l-1.183-1.184c-.391-.39-1.023-.39-1.414 0s-.391 1.024 0 1.414zm3.0737 28.9571c.833 0 1.51.678 1.51 1.511 0 .832-.677 1.51-1.51 1.51s-1.51-.678-1.51-1.51c0-.833.677-1.511 1.51-1.511m0 5.021c1.935 0 3.51-1.576 3.51-3.51 0-1.936-1.575-3.511-3.51-3.511-1.936 0-3.51 1.575-3.51 3.511 0 1.934 1.574 3.51 3.51 3.51m95.7529-50.2447c2.475 0 4.5-2.025 4.5-4.5s-2.025-4.5-4.5-4.5-4.5 2.025-4.5 4.5 2.025 4.5 4.5 4.5m8.2549-9.8833c.552 0 1-.448 1-1s-.448-1-1-1c-2.97 0-4.017-2.531-4.067-2.657-.198-.513-.775-.768-1.289-.574-.516.197-.775.775-.579 1.291.062.161 1.553 3.94 5.935 3.94"/></g></g></svg>