<svg height="24" viewBox="0 0 24 24" width="24" xmlns="http://www.w3.org/2000/svg"><path clip-rule="evenodd" d="m11.8622 4.05696c.076-.07595.1996-.07595.2756 0l7.8048 7.80474c.0371.0362.0574.0865.0574.1377 0 .0513-.0212.1016-.0574.1378l-7.8048 7.8047c-.038.038-.0883.0574-.1378.0574s-.0998-.0194-.1378-.0574l-7.8048-7.8047c-.03709-.0362-.0574-.0857-.0574-.1378s.02031-.1015.0574-.1377zm.9299 8.29474 3.6146-2.37377c.0909-.05917.2013.03977.151.13597l-1.4986 2.9416c-.0354.0707.0158.1537.0944.1537h.8973c.1033 0 .1457.1316.0618.1916l-4.0517 2.9028c-.0362.0265-.0856.0265-.1227 0l-4.05168-2.9028c-.08301-.06-.04062-.1916.06182-.1916h.89634c.07948 0 .1307-.083.09449-.1537l-1.49862-2.9416c-.04945-.0962.06094-.19514.1519-.13597l3.61545 2.37377c.0627.0415.113.098.1465.1651l.5511 1.1057c.0389.0777.1501.0777.189 0l.551-1.1057c.0336-.0671.0839-.1245.1466-.1651z" fill="#45ddc0" fill-rule="evenodd"/></svg>